<svg xmlns="http://www.w3.org/2000/svg" xmlns:xlink="http://www.w3.org/1999/xlink" data-name="Layer 1" viewBox="0 0 1400 1000" id="robots-doing-data-research"><defs><linearGradient id="b" x1="238.76" x2="287.96" y1="824.02" y2="824.02" gradientUnits="userSpaceOnUse"><stop offset="0" stop-color="#5884c3"></stop><stop offset=".15" stop-color="#5b86c4" stop-opacity=".98"></stop><stop offset=".29" stop-color="#658ec8" stop-opacity=".92"></stop><stop offset=".43" stop-color="#769ace" stop-opacity=".82"></stop><stop offset=".57" stop-color="#8eacd6" stop-opacity=".68"></stop><stop offset=".72" stop-color="#acc2e1" stop-opacity=".5"></stop><stop offset=".86" stop-color="#d1ddef" stop-opacity=".27"></stop><stop offset=".99" stop-color="#fcfdfe" stop-opacity=".02"></stop><stop offset="1" stop-color="#fff" stop-opacity="0"></stop></linearGradient><linearGradient id="i" x1="238.79" x2="238.79" y1="909.62" y2="828.12" gradientUnits="userSpaceOnUse"><stop offset="0" stop-color="#fff" stop-opacity=".6"></stop><stop offset=".02" stop-color="#f8fafd" stop-opacity=".62"></stop><stop offset=".26" stop-color="#b2c6e3" stop-opacity=".78"></stop><stop offset=".5" stop-color="#80a1d1" stop-opacity=".9"></stop><stop offset=".75" stop-color="#628bc7" stop-opacity=".98"></stop><stop offset="1" stop-color="#5884c3"></stop></linearGradient><linearGradient id="f" x1="786.01" x2="908.17" y1="410.65" y2="410.65" gradientUnits="userSpaceOnUse"><stop offset="0" stop-color="#f25654"></stop><stop offset=".09" stop-color="#f25a58" stop-opacity=".97"></stop><stop offset=".22" stop-color="#f36765" stop-opacity=".9"></stop><stop offset=".37" stop-color="#f57b79" stop-opacity=".78"></stop><stop offset=".54" stop-color="#f79796" stop-opacity=".62"></stop><stop offset=".72" stop-color="#fabbba" stop-opacity=".4"></stop><stop offset=".9" stop-color="#fde6e6" stop-opacity=".15"></stop><stop offset="1" stop-color="#fff" stop-opacity="0"></stop></linearGradient><linearGradient id="a" x1="779.51" x2="914.67" y1="410.65" y2="410.65" gradientUnits="userSpaceOnUse"><stop offset="0" stop-color="#4058a6"></stop><stop offset=".25" stop-color="#415aa8" stop-opacity=".97"></stop><stop offset=".49" stop-color="#4562ad" stop-opacity=".89"></stop><stop offset=".72" stop-color="#4c6fb5" stop-opacity=".74"></stop><stop offset=".96" stop-color="#5680c0" stop-opacity=".54"></stop><stop offset="1" stop-color="#5884c3" stop-opacity=".5"></stop></linearGradient><linearGradient id="j" x1="798.61" x2="835.09" y1="446.8" y2="446.8" xlink:href="#a"></linearGradient><linearGradient id="k" x1="798.61" x2="835.09" y1="415.69" y2="415.69" xlink:href="#a"></linearGradient><linearGradient id="l" x1="855.25" x2="901.73" y1="415.69" y2="415.69" xlink:href="#a"></linearGradient><linearGradient id="m" x1="798.61" x2="835.09" y1="423.37" y2="423.37" xlink:href="#a"></linearGradient><linearGradient id="n" x1="860.25" x2="896.73" y1="456.97" y2="456.97" xlink:href="#a"></linearGradient><linearGradient id="o" x1="963.83" x2="1089.63" y1="389.05" y2="389.05" xlink:href="#a"></linearGradient><linearGradient id="p" x1="1017.51" x2="1071.51" y1="367.23" y2="367.23" xlink:href="#a"></linearGradient><linearGradient id="q" x1="1008.69" x2="1062.69" y1="396.57" y2="396.57" xlink:href="#a"></linearGradient><linearGradient id="r" x1="1004.01" x2="1058.01" y1="381.9" y2="381.9" xlink:href="#a"></linearGradient><linearGradient id="s" x1="987.51" x2="1071.51" y1="414.21" y2="414.21" xlink:href="#a"></linearGradient><linearGradient id="t" x1="839.89" x2="1033.81" y1="330.49" y2="330.49" xlink:href="#b"></linearGradient><linearGradient id="u" x1="858.17" x2="929.45" y1="353.69" y2="353.69" xlink:href="#a"></linearGradient><linearGradient id="v" x1="858.17" x2="897.29" y1="361.13" y2="361.13" xlink:href="#a"></linearGradient><linearGradient id="w" x1="858.17" x2="913.85" y1="368.57" y2="368.57" xlink:href="#a"></linearGradient><linearGradient id="x" x1="858.17" x2="877.73" y1="376.01" y2="376.01" xlink:href="#a"></linearGradient><linearGradient id="y" x1="971.41" x2="1029.29" y1="532.12" y2="532.12" xlink:href="#a"></linearGradient><linearGradient id="z" x1="993.82" x2="1037.7" y1="517.48" y2="517.48" xlink:href="#b"></linearGradient><linearGradient id="c" x1="1051.03" x2="1092.31" y1="511.48" y2="511.48" gradientUnits="userSpaceOnUse"><stop offset="0" stop-color="#5884c3"></stop><stop offset=".2" stop-color="#5b86c4" stop-opacity=".98"></stop><stop offset=".34" stop-color="#638cc7" stop-opacity=".94"></stop><stop offset=".47" stop-color="#7196cc" stop-opacity=".85"></stop><stop offset=".59" stop-color="#84a4d3" stop-opacity=".74"></stop><stop offset=".71" stop-color="#9db7dc" stop-opacity=".59"></stop><stop offset=".82" stop-color="#bccee7" stop-opacity=".4"></stop><stop offset=".92" stop-color="#e0e8f4" stop-opacity=".18"></stop><stop offset="1" stop-color="#fff" stop-opacity="0"></stop></linearGradient><linearGradient id="A" x1="1051.03" x2="1077.06" y1="522.76" y2="522.76" xlink:href="#c"></linearGradient><linearGradient id="B" x1="1051.03" x2="1092.31" y1="534.04" y2="534.04" xlink:href="#c"></linearGradient><linearGradient id="C" x1="986.82" x2="1044.7" y1="517.48" y2="517.48" xlink:href="#a"></linearGradient><linearGradient id="d" x1="707.64" x2="928.44" y1="581.68" y2="581.68" gradientUnits="userSpaceOnUse"><stop offset="0" stop-color="#f2ba34"></stop><stop offset=".13" stop-color="#f2bb37" stop-opacity=".98"></stop><stop offset=".26" stop-color="#f3be41" stop-opacity=".94"></stop><stop offset=".39" stop-color="#f4c452" stop-opacity=".85"></stop><stop offset=".52" stop-color="#f5cc69" stop-opacity=".74"></stop><stop offset=".64" stop-color="#f7d686" stop-opacity=".59"></stop><stop offset=".77" stop-color="#fae2ab" stop-opacity=".41"></stop><stop offset=".89" stop-color="#fcf1d5" stop-opacity=".21"></stop><stop offset="1" stop-color="#fff" stop-opacity="0"></stop></linearGradient><linearGradient id="D" x1="722.02" x2="845.66" y1="604" y2="604" xlink:href="#a"></linearGradient><linearGradient id="E" x1="782.4" x2="903.36" y1="539.94" y2="539.94" xlink:href="#a"></linearGradient><linearGradient id="F" x1="782.4" x2="903.36" y1="555.78" y2="555.78" xlink:href="#a"></linearGradient><linearGradient id="G" x1="782.4" x2="823.36" y1="571.62" y2="571.62" xlink:href="#a"></linearGradient><linearGradient id="H" x1="777.12" x2="806.79" y1="601.12" y2="601.12" xlink:href="#a"></linearGradient><linearGradient id="I" x1="777.12" x2="821.28" y1="593.54" y2="593.54" xlink:href="#a"></linearGradient><linearGradient id="J" x1="777.12" x2="821.28" y1="608.7" y2="608.7" xlink:href="#a"></linearGradient><linearGradient id="K" x1="777.12" x2="791.28" y1="616.28" y2="616.28" xlink:href="#a"></linearGradient><linearGradient id="L" x1="795.84" x2="810" y1="616.28" y2="616.28" xlink:href="#a"></linearGradient><linearGradient id="M" x1="701.14" x2="934.94" y1="581.68" y2="581.68" xlink:href="#a"></linearGradient><linearGradient id="N" x1="657.07" x2="742.75" y1="435.22" y2="435.22" xlink:href="#b"></linearGradient><linearGradient id="O" x1="-4071.83" x2="-3861.65" y1="-11880.96" y2="-11880.96" gradientTransform="matrix(-1 0 0 1 -3494.84 12273.98)" xlink:href="#d"></linearGradient><linearGradient id="P" x1="17191.86" x2="17415.98" y1="-11881.14" y2="-11881.14" gradientTransform="translate(-16832.2 12273.98)" xlink:href="#a"></linearGradient><linearGradient id="Q" x1="17208.49" x2="17299.72" y1="-11852.48" y2="-11852.48" gradientTransform="translate(-16832.2 12273.98)" xlink:href="#a"></linearGradient><linearGradient id="R" x1="17208.49" x2="17256.77" y1="-11829.38" y2="-11829.38" gradientTransform="translate(-16832.2 12273.98)" xlink:href="#a"></linearGradient><linearGradient id="S" x1="17251" x2="17462.12" y1="-11940.86" y2="-11940.86" gradientTransform="translate(-16832.2 12273.98)" xlink:href="#b"></linearGradient><linearGradient id="T" x1="17260.44" x2="17306.84" y1="-11907.06" y2="-11907.06" gradientTransform="translate(-16832.2 12273.98)" xlink:href="#a"></linearGradient><linearGradient id="U" x1="17268.8" x2="17298.48" y1="-11907.06" y2="-11907.06" gradientTransform="translate(-16832.2 12273.98)" xlink:href="#a"></linearGradient><linearGradient id="V" x1="17314.62" x2="17375.08" y1="-11913.23" y2="-11913.23" gradientTransform="translate(-16832.2 12273.98)" xlink:href="#a"></linearGradient><linearGradient id="e" x1="17259.44" x2="17338.47" y1="-11990.03" y2="-11990.03" gradientTransform="translate(-16832.2 12273.98)" gradientUnits="userSpaceOnUse"><stop offset="0" stop-color="#5884c3" stop-opacity=".5"></stop><stop offset=".04" stop-color="#5680c0" stop-opacity=".54"></stop><stop offset=".28" stop-color="#4c6fb5" stop-opacity=".74"></stop><stop offset=".51" stop-color="#4562ad" stop-opacity=".89"></stop><stop offset=".75" stop-color="#415aa8" stop-opacity=".97"></stop><stop offset="1" stop-color="#4058a6"></stop></linearGradient><linearGradient id="W" x1="17259.44" x2="17307.72" y1="-11969.14" y2="-11969.14" xlink:href="#e"></linearGradient><linearGradient id="X" x1="17344.85" x2="17375.08" y1="-11935.33" y2="-11935.33" xlink:href="#e"></linearGradient><linearGradient id="Y" x1="-4110.46" x2="-4047.65" y1="-11940.95" y2="-11940.95" gradientTransform="matrix(-1 0 0 1 -3494.84 12273.98)" xlink:href="#f"></linearGradient><linearGradient id="Z" x1="17244.5" x2="17468.62" y1="-11940.86" y2="-11940.86" gradientTransform="translate(-16832.2 12273.98)" xlink:href="#a"></linearGradient><linearGradient id="ac" x1="386.83" x2="656.59" y1="561.86" y2="561.86" xlink:href="#b"></linearGradient><linearGradient id="ad" x1="402.31" x2="457.99" y1="539.31" y2="539.31" xlink:href="#a"></linearGradient><linearGradient id="ae" x1="488.23" x2="609.19" y1="519.35" y2="519.35" xlink:href="#a"></linearGradient><linearGradient id="af" x1="488.23" x2="609.19" y1="535.19" y2="535.19" xlink:href="#a"></linearGradient><linearGradient id="ag" x1="488.23" x2="529.19" y1="551.03" y2="551.03" xlink:href="#a"></linearGradient><linearGradient id="ah" x1="402.31" x2="456.27" y1="583.43" y2="583.43" xlink:href="#a"></linearGradient><linearGradient id="ai" x1="402.31" x2="426.27" y1="593.79" y2="593.79" xlink:href="#a"></linearGradient><linearGradient id="aj" x1="402.31" x2="446.27" y1="604.15" y2="604.15" xlink:href="#a"></linearGradient><linearGradient id="ak" x1="541.51" x2="582.47" y1="591.31" y2="591.31" xlink:href="#a"></linearGradient><linearGradient id="al" x1="541.51" x2="602.47" y1="583.73" y2="583.73" xlink:href="#a"></linearGradient><linearGradient id="am" x1="541.51" x2="602.47" y1="598.89" y2="598.89" xlink:href="#a"></linearGradient><linearGradient id="an" x1="380.33" x2="663.09" y1="561.87" y2="561.87" xlink:href="#a"></linearGradient><linearGradient id="ao" x1="279.71" x2="384.89" y1="687.88" y2="687.88" gradientUnits="userSpaceOnUse"><stop offset="0" stop-color="#4059a6"></stop><stop offset="1" stop-color="#5883c2" stop-opacity=".1"></stop></linearGradient><linearGradient id="h" x1="368.71" x2="386.09" y1="677.66" y2="677.66" gradientUnits="userSpaceOnUse"><stop offset="0" stop-color="#4059a6"></stop><stop offset=".25" stop-color="#415ba8" stop-opacity=".97"></stop><stop offset=".48" stop-color="#4562ac" stop-opacity=".89"></stop><stop offset=".72" stop-color="#4c6eb4" stop-opacity=".75"></stop><stop offset=".95" stop-color="#567fbf" stop-opacity=".55"></stop><stop offset="1" stop-color="#5883c2" stop-opacity=".5"></stop></linearGradient><linearGradient id="ap" x1="357.58" x2="374.96" y1="681.09" y2="681.09" xlink:href="#h"></linearGradient><linearGradient id="aq" x1="346.02" x2="363.4" y1="684.53" y2="684.53" xlink:href="#h"></linearGradient><radialGradient id="g" cx="17283.64" cy="-11907.06" r="57.95" gradientTransform="translate(-16832.2 12273.98)" gradientUnits="userSpaceOnUse"><stop offset="0" stop-color="#fff"></stop><stop offset=".13" stop-color="#fff" stop-opacity=".98"></stop><stop offset=".26" stop-color="#fff" stop-opacity=".94"></stop><stop offset=".38" stop-color="#fff" stop-opacity=".86"></stop><stop offset=".5" stop-color="#fff" stop-opacity=".75"></stop><stop offset=".63" stop-color="#fff" stop-opacity=".61"></stop><stop offset=".75" stop-color="#fff" stop-opacity=".44"></stop><stop offset=".87" stop-color="#fff" stop-opacity=".24"></stop><stop offset=".99" stop-color="#fff" stop-opacity=".01"></stop><stop offset="1" stop-color="#fff" stop-opacity="0"></stop></radialGradient><radialGradient id="aa" cx="17283.64" cy="-11907.06" r="37.71" xlink:href="#g"></radialGradient><radialGradient id="ab" cx="17283.64" cy="-11907.06" r="21.83" xlink:href="#g"></radialGradient></defs><path fill="#e7ebf6" d="M479.93 603h-.09l-1 0a5 5 0 01.12-10h.12l1 0a5 5 0 01-.09 10zm30-.88a5 5 0 01-.37-10l1-.08a5 5 0 11.82 10l-1 .08zM449 601l-.56 0-1-.12a5 5 0 111.15-9.93l1 .11a5 5 0 01-.55 10zm91.59-3a5 5 0 01-1-9.91l1-.19a5 5 0 012 9.81l-1 .2A5.31 5.31 0 01540.6 598zm-122.22-1.7a5.39 5.39 0 01-1-.09l-1-.2a5 5 0 012-9.8l1 .19a5 5 0 01-1 9.9zm152.17-6.22a5 5 0 01-1.6-9.74l.92-.31a5 5 0 113.26 9.45l-1 .33A5 5 0 01570.55 590.07zm-182.31-1a4.84 4.84 0 01-1.35-.19l-1-.27a5 5 0 112.73-9.62l.95.26a5 5 0 01-1.35 9.82zm-29.49-9.51a4.86 4.86 0 01-1.71-.3l-.94-.34a5 5 0 013.43-9.4l.93.34a5 5 0 01-1.71 9.7zM599 577.9a5 5 0 01-2.33-9.42l.85-.46a5 5 0 114.72 8.82l-.91.48A4.9 4.9 0 01599 577.9zm-269-10a5 5 0 01-2.05-.44l-.91-.41a5 5 0 114.1-9.12l.91.41a5 5 0 01-2.05 9.56zM625 561a5 5 0 01-3.12-8.92l.75-.6a5 5 0 116.29 7.78l-.81.65A5 5 0 01625 561zm-322.73-6.82a5 5 0 01-2.37-.6l-.89-.48a5 5 0 014.77-8.79l.86.46a5 5 0 01-2.37 9.41zM647 539.31a4.94 4.94 0 01-3.13-1.11 5 5 0 01-.76-7l.62-.77a5 5 0 017.8 6.25l-.63.79A5 5 0 01647 539.31zm-371.46-.78a5 5 0 01-2.69-.79l-.84-.54a5 5 0 015.38-8.43l.85.54a5 5 0 01-2.7 9.22zm-25.47-17.67a5 5 0 01-3-1l-.8-.61a5 5 0 116-8l.79.6a5 5 0 01-3 9zm413.49-7.65a5 5 0 01-4.51-7.16l.82-1.73a5 5 0 119.07 4.19l-.87 1.85A5 5 0 01663.54 513.21zm-437.48-12a5 5 0 01-3.32-1.26l-.75-.67a5 5 0 116.66-7.46l.74.66a5 5 0 01-3.33 8.73zM673.8 483a5.33 5.33 0 01-1-.11 5 5 0 01-3.85-5.93l.19-.94a5 5 0 019.8 2l-.21 1A5 5 0 01673.8 483zm-470-3.33a5 5 0 01-3.63-1.57l-.7-.74a5 5 0 117.3-6.83l.67.71a5 5 0 01-3.64 8.43zm-20.18-23.51a5 5 0 01-3.95-1.93l-.62-.8a5 5 0 017.91-6.12l.6.78a5 5 0 01-3.94 8.07zm493.15-4a5 5 0 01-5-4.95v-1a5 5 0 1110-.17v1a5 5 0 01-4.95 5zM165.93 430.73a5 5 0 01-4.27-2.38l-.52-.86a5 5 0 018.52-5.23l.52.85a5 5 0 01-4.25 7.62zm507.54-9.29a5 5 0 01-4.9-4l-.19-1a5 5 0 119.79-2l.2 1a5 5 0 01-3.9 5.9A4.92 4.92 0 01673.47 421.44zm-522.2-18a5 5 0 01-4.55-2.92l-.42-.91a5 5 0 119.09-4.16l.42.91a5 5 0 01-2.47 6.63A5.08 5.08 0 01151.27 403.44zM664.9 391.69a5 5 0 01-4.69-3.26l-.34-.9a5 5 0 019.35-3.55l.37 1a5 5 0 01-4.69 6.74zM140.38 374.45a5 5 0 01-4.8-3.6l-.28-1a5 5 0 019.62-2.73l.26.92a5 5 0 01-3.39 6.21A5.28 5.28 0 01140.38 374.45zm511.71-11a5 5 0 01-4.41-2.64l-.46-.86a5 5 0 118.79-4.76l.48.9a5 5 0 01-4.4 7.36zM134.22 344.11a5 5 0 01-5-4.44l-.11-1a5 5 0 0110-1.06l.1 1a5 5 0 01-4.41 5.52zm501.66-7a5 5 0 01-4.11-2.15l-.56-.81a5 5 0 118.19-5.73l.59.84a5 5 0 01-4.11 7.85zm-502-23.91l-.46 0a5 5 0 01-4.52-5.44l.1-1a5 5 0 019.95 1l-.09.95A5 5 0 01133.84 313.18zm483.08-.6a5 5 0 01-3.8-1.75l-.65-.75a5 5 0 017.58-6.52l.66.77a5 5 0 01-3.79 8.25zM595.68 290a5 5 0 01-3.48-1.42l-.7-.68a5 5 0 116.93-7.2l.74.71a5 5 0 01-3.49 8.59zm-455.56-7.12a5 5 0 01-4.75-6.57l.33-1a5 5 0 019.47 3.22l-.31.91A5 5 0 01140.12 282.89zm432.43-13.51a5 5 0 01-3.16-1.13l-.77-.63a5 5 0 116.32-7.75l.78.64a5 5 0 01-3.17 8.87zM153.2 254.87a5 5 0 01-4.25-7.63l.55-.89a5 5 0 018.46 5.33l-.5.82A5 5 0 01153.2 254.87zm394.62-4.17a5 5 0 01-2.86-.9l-.8-.55a5 5 0 115.68-8.23l.84.58a5 5 0 01-2.86 9.1zM521.71 234a5 5 0 01-2.53-.69l-.84-.5a5 5 0 115-8.64l.88.52a5 5 0 01-2.54 9.31zm-349.32-3.35a5 5 0 01-3.55-8.53l.73-.73a5 5 0 117 7.1l-.67.68A5 5 0 01172.39 230.64zm322.05-11.38a5 5 0 01-2.21-.52l-.89-.44a5 5 0 014.42-9l.9.44a5 5 0 01-2.22 9.49zm-298.07-8.17a5 5 0 01-2.76-9.17l.86-.56a5 5 0 115.47 8.37l-.82.54A5 5 0 01196.37 211.09zm269.82-4.56a5 5 0 01-1.88-.37l-.93-.38a5 5 0 113.77-9.26l.92.38a5 5 0 01-1.88 9.63zM223.61 196.4a5 5 0 01-2-9.59l.93-.4a5 5 0 113.95 9.18l-.9.39A4.81 4.81 0 01223.61 196.4zm213.48-.51a5.15 5.15 0 01-1.54-.24l-.94-.3a5 5 0 013.07-9.52l.95.31a5 5 0 01-1.54 9.75zm-29.82-8.41a5.26 5.26 0 01-1.17-.14l-1-.23a5 5 0 112.32-9.73l1 .24a5 5 0 01-1.17 9.86zm-154.41-1.27a5 5 0 01-1.31-9.83l1-.26a5 5 0 112.57 9.66l-1 .26A5.27 5.27 0 01252.86 186.21zm124-4.76a5 5 0 01-.77-.06l-1-.15a5 5 0 011.52-9.89l1 .16a5 5 0 01-.75 9.94zM283.21 180a5 5 0 01-.7-9.95l1-.14a5 5 0 111.35 9.9l-1 .14A5.78 5.78 0 01283.21 180zm62.87-2h-.36l-.94-.06.62-10-.33 5 .36-5 1 .07a5 5 0 01-.34 10zm-32-.59a5 5 0 01-.16-10l1 0a5 5 0 01.3 10l-1 0zM952.48 627.15a5 5 0 010-10h1a5 5 0 010 10h-1zm-30-1h-.37l-1-.07a5 5 0 01.73-10l1 .08a5 5 0 01-.36 10zm60.93-.18a5 5 0 01-.39-10l1-.07a5 5 0 11.79 10l-1 .08zm-91.73-3.3a4.87 4.87 0 01-.76-.06l-1-.16a5 5 0 111.55-9.87l1 .15a5 5 0 01-.76 9.94zm122.53-.18a5 5 0 01-.72-10l1-.15a5 5 0 011.5 9.89l-1 .15A4.52 4.52 0 011014.24 622.45zm30.46-5.69a5 5 0 01-1.09-9.88l1-.22a5 5 0 012.23 9.75l-1 .23A5.24 5.24 0 011044.7 616.76zm-183.38-.2a4.92 4.92 0 01-1.2-.14l-1-.24a5 5 0 012.41-9.71l1 .24a5 5 0 01-1.19 9.85zm213.35-7.73a5 5 0 01-1.46-9.78l.94-.29a5 5 0 013 9.55l-1 .3A4.93 4.93 0 011074.67 608.83zm-243.06-1.08a5.08 5.08 0 01-1.66-.28l-1-.34a5 5 0 013.34-9.43l.93.33a5 5 0 01-1.65 9.72zm272.32-9.13a5 5 0 01-1.83-9.65l.92-.36a5 5 0 113.69 9.29l-1 .37A4.91 4.91 0 011103.93 598.62zm-301-2.65a4.89 4.89 0 01-2.15-.49l-.92-.44a5 5 0 114.35-9l.88.42a5 5 0 01-2.16 9.51zm329.33-9.91a5 5 0 01-2.23-9.48l.89-.44a5 5 0 114.46 9l-.9.45A4.89 4.89 0 011132.27 586.06zM775.83 581a5 5 0 01-2.69-.78l-.86-.55a5 5 0 015.42-8.41l.83.53a5 5 0 01-2.7 9.21zm383.57-9.9a5 5 0 01-2.63-9.26l.85-.52a5 5 0 115.25 8.51l-.85.52A4.93 4.93 0 011159.4 571.08zM751 562.52a4.92 4.92 0 01-3.27-1.23l-.76-.65a5 5 0 016.56-7.55l.75.65a5 5 0 01-3.28 8.78zm434-9a5 5 0 01-3-9l.77-.59a5 5 0 116.11 7.92l-.82.62A5 5 0 011185 553.56zM729.36 540.37a5 5 0 01-3.88-1.84l-.64-.8a5 5 0 017.78-6.28l.61.76a5 5 0 01-3.87 8.16zm479.14-7a5 5 0 01-3.47-8.6l.7-.68a5 5 0 017 7.18l-.74.71A5 5 0 011208.5 533.41zM712.28 514.59a5 5 0 01-4.44-2.69l-.47-.91a5 5 0 018.89-4.58l.45.88a5 5 0 01-4.43 7.3zm517.08-4.07a5 5 0 01-3.93-8.09l.62-.78a5 5 0 117.86 6.18l-.62.79A5 5 0 011229.36 510.52zM701.13 485.77A5 5 0 01696.3 482l-.26-1a5 5 0 119.7-2.43l.24.92a5 5 0 01-3.58 6.1A5.08 5.08 0 01701.13 485.77zm545.55-.9a5 5 0 01-4.35-7.45l.48-.86a5 5 0 018.73 4.87l-.49.89A5 5 0 011246.68 484.87zm12.67-28.23a4.9 4.9 0 01-1.59-.26 5 5 0 01-3.16-6.33l.31-.93a5 5 0 019.5 3.14l-.32 1A5 5 0 011259.35 456.64zm-562.42-1.5a5 5 0 01-5-4.89V449.2a5 5 0 1110-.12v1a5 5 0 01-4.89 5.1zm569.13-28.68l-.55 0a5 5 0 01-4.42-5.52l.1-.95a5 5 0 0110 1l-.11 1A5 5 0 011266.06 426.46zm-566.15-2.08a4.75 4.75 0 01-1-.11 5 5 0 01-3.85-5.93l.22-1a5 5 0 119.77 2.15l-.2.94A5 5 0 01699.91 424.38zm565.91-28.83a5 5 0 01-5-4.38l-.12-.95s0 0 0 0v-.05l-.13-.94a5 5 0 119.9-1.41l.14 1v.09l.13 1a5 5 0 01-4.34 5.58zM709.44 395a5.14 5.14 0 01-2-.42 5 5 0 01-2.56-6.59l.41-.94a5 5 0 019.14 4.07l-.4.89A5 5 0 01709.44 395zm14.91-27.12a4.94 4.94 0 01-2.76-.84 5 5 0 01-1.39-6.93l.57-.86a5 5 0 018.29 5.6l-.54.8A5 5 0 01724.35 367.85zM1258 364.53a5 5 0 01-4.67-3.21l-.34-.9a5 5 0 119.31-3.64l.37 1a5 5 0 01-2.88 6.46A4.89 4.89 0 011258 364.53zM743.4 343.43a5 5 0 01-3.71-8.35l.68-.75a5 5 0 117.4 6.72l-.65.73A5 5 0 01743.4 343.43zm500.45-6.37a5 5 0 01-4.17-2.24l-.54-.81a5 5 0 118.31-5.56l.57.85a5 5 0 01-4.17 7.76zM765.56 321.78a5 5 0 01-3.27-8.78l.77-.67a5 5 0 016.51 7.6l-.74.64A5 5 0 01765.56 321.78zM1224.39 313a5 5 0 01-3.59-1.52l-.67-.68a5 5 0 017.12-7l.72.75a5 5 0 01-3.58 8.48zM790.08 302.83a5 5 0 01-2.85-9.11l.84-.58a5 5 0 115.65 8.25l-.8.56A5 5 0 01790.08 302.83zm411-10.17a5 5 0 01-3-1l-.8-.59a5 5 0 015.94-8l.81.6a5 5 0 01-3 9zM816.4 286.47A5 5 0 01814 277.1l.88-.49a5 5 0 114.85 8.74l-.86.49A5 5 0 01816.4 286.47zM1175 275.92a4.88 4.88 0 01-2.41-.63l-.86-.47a5 5 0 014.81-8.77l.89.49a5 5 0 01-2.43 9.38zM844.1 272.59a5 5 0 01-2-9.57l.92-.41a5 5 0 014.07 9.14l-.91.4A4.9 4.9 0 01844.1 272.59zm303-10.07a5.1 5.1 0 01-1.9-.37l-.91-.38a5 5 0 013.77-9.26l.94.39a5 5 0 01-1.9 9.62zM872.89 261.1a5 5 0 01-1.67-9.72l.95-.33a5 5 0 113.31 9.43l-.93.33A5.09 5.09 0 01872.89 261.1zm244.95-8.89a5 5 0 01-1.42-.2l-.94-.28a5 5 0 112.8-9.6l1 .29a5 5 0 01-1.42 9.79zm-215.35-.29a5 5 0 01-1.29-9.83l1-.26a5 5 0 112.57 9.66l-1 .26A5.26 5.26 0 01902.49 251.92zM932.7 245a5 5 0 01-.94-9.91l1-.19a5 5 0 011.85 9.83l-1 .18A5.07 5.07 0 01932.7 245zm155.06-.24a4.89 4.89 0 01-1-.1l-1-.19a5 5 0 111.93-9.81l1 .19a5 5 0 01-1 9.91zm-124.43-4.45a5 5 0 01-.57-10l1-.11a5 5 0 111.14 9.93l-1 .11A3.9 3.9 0 01963.33 240.31zm93.81-.35l-.57 0-1-.11a5 5 0 011.11-9.94l1 .12a5 5 0 01-.57 10zm-62.91-2.13a5 5 0 01-.21-10l1-.05a5 5 0 01.41 10l-1 0zm32-.15h-.18l-1 0a5 5 0 11.32-10l1 0a5 5 0 01-.17 10z"></path><polygon fill="#f0f3f8" points="564.74 140.37 401.75 140.37 343.06 199.06 343.06 262.06 401.75 320.74 564.74 320.74 623.43 262.06 623.43 199.06 564.74 140.37"></polygon><polygon fill="#f0f3f8" points="1118.86 354.17 1006.33 354.17 940.51 288.35 666.88 288.35 601.05 354.17 277.4 354.17 162.56 469.01 162.56 631.42 277.4 746.26 601.05 746.26 666.88 812.09 940.51 812.09 1006.33 746.26 1118.86 746.26 1233.7 631.42 1233.7 469.01 1118.86 354.17"></polygon><path fill="#e7ebf6" d="M290.46,228.93h873.22a0,0,0,0,1,0,0V679.17a11,11,0,0,1-11,11H301.46a11,11,0,0,1-11-11V228.93A0,0,0,0,1,290.46,228.93Z"></path><path fill="#a8b9df" d="M301.46,125.71h851.22a11,11,0,0,1,11,11v92.22a0,0,0,0,1,0,0H290.46a0,0,0,0,1,0,0V136.71A11,11,0,0,1,301.46,125.71Z"></path><circle cx="970.71" cy="180.08" r="16.44" fill="#3e5fab"></circle><circle cx="1038.03" cy="180.08" r="16.44" fill="#3e5fab"></circle><circle cx="1105.36" cy="180.08" r="16.44" fill="#3e5fab"></circle><path fill="#a4b5dd" d="M243.21,764.93c-1,1.09-2.06,3.61-3,6.29l-.5-28.63a62.87,62.87,0,0,1,6.55-19l-2.24-1.31a60.25,60.25,0,0,0-4.49,10.4l-1.42-80.82c.8-5.06,2.55-10.9,3.89-11.58L240.87,638c-1.16.59-2.12,2.18-2.89,4.1l-.39-22.25-2.59,0,.2,11.62a25.25,25.25,0,0,0-3.43-6l-2,1.68c0,.05,4.25,5.16,5.6,14.82l2,115.31a68.32,68.32,0,0,0-9.05-16.23l-2,1.61c.09.12,9,11.5,11.27,24.82l.29,16.7,2.59-.05-.06-3.73c1-4.51,3.16-12.1,4.67-13.71Z"></path><path fill="#c4cfe6" d="M172.41,670.85c-.56-1.42,2.38-4.56,8.3-10.78,5.67-6,8.51-9,11.61-11,2.85-1.88,9.36-6,18.24-6.43,6.64-.29,4.52,2,20.53,5.18,3.77.76,7.92,1.44,10,4.77.21.36,1.74,2.84.82,5-1.12,2.63-5.07,2.67-11.4,3.94-2.48.49,1.65-.22-15.55,4.56-8.95,2.48-13.42,3.73-15.35,4.15S174.31,675.64,172.41,670.85Z"></path><path fill="#a4b5dd" d="M178.79,666.87a29.58,29.58,0,0,1,5.24-3c.88-.41,1.75-.79,2.63-1.13a15.71,15.71,0,0,1,2.72-.88c1.87-.41,4-.49,5.74-1.29a15.46,15.46,0,0,0,4.75-3.46c.73-.71,1.45-1.45,2.24-2.09a24,24,0,0,1,2.48-1.79A29.46,29.46,0,0,1,210,650.3a25.72,25.72,0,0,1,12.15-1.67l.13.48a45.35,45.35,0,0,1-5.06,3.37c-1.69,1-3.38,1.89-5.09,2.72s-3.5,1.47-5.28,2.2a50.91,50.91,0,0,1-5.5,2,22.41,22.41,0,0,0-5.42,2.55c-1.68,1.08-3.17,2.67-4.95,3.74a11.64,11.64,0,0,1-2.81,1.21,20.33,20.33,0,0,1-3,.67,15.53,15.53,0,0,1-6.24-.25Z"></path><path fill="#dde6f4" d="M228.4,745.08c1.18-.78-.1-3.4-2.28-14.1-2.57-12.55-1.89-14.24-4.36-18-2.29-3.53-5.26-5.46-11.2-9.33a95.16,95.16,0,0,0-16-8.09c-9.9-4.2-9.51-3-14.72-5.59-11.34-5.69-16-12.87-18.25-11.41-1,.63-.83,2.41.41,9.33,2.06,11.41,3.08,17.12,4.15,19.08,3.68,6.76,9.77,9.79,18,13.89,10.39,5.16,11.85,3,20.53,7.26C219.66,735.33,225.89,746.73,228.4,745.08Z"></path><path fill="#a4b5dd" d="M166,685.62c2.62,1.81,4.92,3.72,7.23,5.6l3.43,2.83c1.14.93,2.25,1.9,3.32,2.94,2.12,2.07,4.14,4.44,6.63,6.15a30.4,30.4,0,0,0,8.17,3.89c1.45.5,2.92.92,4.33,1.41s2.82,1,4.24,1.48,2.84.93,4.35,1.51a18.77,18.77,0,0,1,4.5,2.43,25.6,25.6,0,0,1,6.47,7.4,24.2,24.2,0,0,1,3.14,9l-.46.2a82.21,82.21,0,0,0-5.83-6.83,43.7,43.7,0,0,0-6.43-5.42,28.18,28.18,0,0,0-3.48-2l-4.08-2c-1.39-.69-2.79-1.37-4.12-2.2s-2.59-1.73-3.86-2.6a73.58,73.58,0,0,0-7.78-5c-2.69-1.47-5.69-2.56-8.36-4.23a23.46,23.46,0,0,1-3.7-2.89,35.88,35.88,0,0,1-3.23-3.41,28.44,28.44,0,0,1-4.87-8.05Z"></path><path fill="#c4cfe6" d="M242.91,769.55c-2.59-.88-.27-14,.83-20.32,1.91-10.82,2.86-16.23,6.64-21.15,5.92-7.72,14.6-10.37,18.66-11.61,7.58-2.32,8.66-.35,18.45-2.91,10-2.6,14.17-6,15.76-4.35,1.86,2-1.7,8.88-5.6,13.48s-7.74,6.48-16,11c-10.14,5.56-15.2,8.33-17.21,9.74C249,754.31,245.8,770.53,242.91,769.55Z"></path><path fill="#a4b5dd" d="M244.94,761.44a23.73,23.73,0,0,1-.59-8.34c.07-.7.18-1.39.28-2.09s.29-1.38.46-2.06.4-1.36.64-2a20,20,0,0,1,.9-1.94,39.9,39.9,0,0,1,5.32-6.65c.93-1,1.87-2,2.84-3a35.85,35.85,0,0,1,3.1-2.92,48.33,48.33,0,0,1,6.7-4.73c2.28-1.41,4.55-2.82,6.93-4a75.8,75.8,0,0,1,7.35-3.29,52.26,52.26,0,0,1,7.88-2.4l.24.43a50.14,50.14,0,0,1-6.2,5.42,77,77,0,0,1-6.73,4.54,66.91,66.91,0,0,1-7.28,3.53c-1.24.54-2.46,1.09-3.73,1.55s-2.54.87-3.76,1.33a12.71,12.71,0,0,0-6.08,4.63c-1.51,2.15-2.06,4.81-2.73,7.24-.15.62-.33,1.22-.53,1.82s-.39,1.21-.6,1.81l-1.19,3.66a72.93,72.93,0,0,1-2.72,7.61Z"></path><path fill="#dde6f4" d="M243.52,724.21c-1-.64-2.08-2.28.62-19.49,1.89-12.09,2.84-18.14,4.35-21.57,3.73-8.43,9.19-13,20.12-22.18,5.24-4.4,18.64-15.66,21.35-13.28,2.14,1.88-3.24,11.4-4.77,14.1-5.47,9.69-8.6,9.23-11.81,16.39-3.36,7.45-.54,9.26-4.15,20.32a43.82,43.82,0,0,1-7.05,14.3C256.77,719.73,247.23,726.64,243.52,724.21Z"></path><path fill="#a4b5dd" d="M248.67,715a34.61,34.61,0,0,1,1.31-9.28,44.61,44.61,0,0,1,1.42-4.42,24.32,24.32,0,0,1,2-4.24c.79-1.38,1.74-2.58,2.56-3.83a26.09,26.09,0,0,0,2.19-4,25.11,25.11,0,0,0,1.4-4.3c.35-1.48.51-3,.73-4.55a18,18,0,0,1,1.31-4.82,16.35,16.35,0,0,1,1.17-2.23,17,17,0,0,1,1.55-2.1c1.12-1.3,2.21-2.37,3.29-3.44s2.17-2.09,3.29-3.1c2.25-2,4.54-4,6.92-5.86s4.78-3.81,7.43-5.53l.38.34a49.6,49.6,0,0,1-5,7.92,64.55,64.55,0,0,1-6.09,7c-1.1,1.08-2.25,2.13-3.43,3.1s-2.4,1.91-3.39,2.82a14,14,0,0,0-1.36,1.42c-.43.51-.86,1.08-1.29,1.63a19.41,19.41,0,0,0-2.17,3.61,77.05,77.05,0,0,0-3.24,8.64c-.47,1.46-.79,3-1.18,4.52s-.83,3.06-1.3,4.47a43.42,43.42,0,0,1-1.64,4.17c-.6,1.38-1.23,2.74-1.89,4.1a65.29,65.29,0,0,1-4.48,8.08Z"></path><path fill="#dde6f4" d="M235.86 620.7c-2.81-1-2.5-10.14-2.28-16.58.15-4.25.61-6.4.42-11.62a73.08 73.08 0 00-.83-8.7c-1.19-7.41-3.06-10.32-4.15-14.52-2.09-8 .2-15.08 3.52-25.3 3.48-10.68 6.36-11.71 6.85-19.7.22-3.56-.06-8.15 1.66-8.7 1.11-.37 2.59 1.12 3.73 2.48 11.91 14.27 14.1 38.57 14.1 38.57.72 8 1.11 12.4-.21 18.46-1.26 5.76-2.73 6.82-6.43 18-2.86 8.68-2.4 9.31-4.35 13.47C244.76 613.26 238.85 621.71 235.86 620.7zM193.35 546.26c.88-.6 2.76.74 5.81 2.91A37.4 37.4 0 01212.64 567c.86 2.51.67 3 2.28 11 1 5 1.49 7.44 2.07 8.71 1.69 3.68 3.28 4.12 7 8.91 2.62 3.34 4.75 6 6.22 10 1 2.58.62 2.94 1.87 14.1.76 6.83 1.06 8.19.16 8.84-2.75 2-11.89-6.18-13-7.18-5.18-4.65-15-13.48-18.66-28.41-3-12.41 1.89-14.14-1.86-28.2C196.15 555 191.58 547.48 193.35 546.26z"></path><path fill="#a4b5dd" d="M202.77 555.9a24.11 24.11 0 014.83 8.63 29.48 29.48 0 011.14 4.87 19.61 19.61 0 01.11 5c-.18 1.62-.48 3.13-.65 4.68a20.83 20.83 0 000 4.67 25.3 25.3 0 002.82 8.91c.7 1.4 1.52 2.75 2.24 4.17s1.4 2.79 2.12 4.1a39.49 39.49 0 002.37 3.74c.89 1.19 1.75 2.35 2.68 3.42s2 2.23 3.08 3.47 2.07 2.53 3 3.85a23.06 23.06 0 011.35 2c.44.68.85 1.39 1.26 2.09.81 1.41 1.59 2.84 2.26 4.33l-.39.31a85 85 0 01-7.4-6.12L220 615c-1.17-1-2.38-2-3.59-3.32a23.11 23.11 0 01-3.09-4.14 32.93 32.93 0 01-2.27-4.57 48.82 48.82 0 01-2.68-9.41c-.6-3.23-1.13-6.39-1.82-9.53-.34-1.58-.77-3.16-1.12-4.78a41.28 41.28 0 01-.77-4.85c-.16-1.55-.24-3-.36-4.49s-.31-3-.51-4.49c-.41-3-1-6-1.49-9.3zM242.73 521.3a23.56 23.56 0 012.53 5.43 27.1 27.1 0 011.25 5.93 23 23 0 01.12 3.11c0 1-.09 2-.15 2.9-.09 1.9-.24 3.79-.5 5.7-.52 3.84-1.53 7.55-1.23 11.36s1.75 7.41 2.54 11.34a54.75 54.75 0 011 5.86 47.69 47.69 0 01.25 6 38.31 38.31 0 01-1.87 11.92c-1.14 3.68-2.34 7.28-3.55 10.93a100.33 100.33 0 01-4.12 10.9l-.49-.09a99.39 99.39 0 01.78-11.71c.21-2 .57-3.86.94-5.78s.81-3.82 1.29-5.69 1-3.65 1.42-5.37a51.11 51.11 0 00.88-5.4c.21-1.85.33-3.71.46-5.59s.26-3.78.28-5.68a31.82 31.82 0 00-.4-5.67c-.31-1.89-.73-3.82-1-5.77a94.33 94.33 0 01-1.33-11.75 39.59 39.59 0 01.23-5.85c.09-1 .23-1.94.34-2.85s.18-1.76.23-2.68c.09-1.83.08-3.68 0-5.56s-.25-3.78-.38-5.76z"></path><path fill="#dde6f4" d="M241,639.56c-2.95-4.44,3.72-13.6,5.6-16.18a31.1,31.1,0,0,1,14.3-11.19c2.44-.88,6.26-1.28,13.9-2.08,6.73-.7,6.8-.44,12.65-1,10.31-1,15.47-1.56,19.07-2.48,2.83-.73,8.25-2.3,12.65-.42,1.14.49,1.78,1,1.87,1.66.17,1.34-2.2,2.61-5,4.15,0,0-5.06,2.8-10.16,5.8a45.35,45.35,0,0,0-9.54,6.85c-3.75,3.66-3.35,4.94-7.05,8.29a31.72,31.72,0,0,1-8.29,5.39c-5.15,2.23-9.2,1.91-15.55,1.87C246.91,640.06,243,642.48,241,639.56Z"></path><path fill="#a4b5dd" d="M242.94,635.63a24.44,24.44,0,0,1,6.92-6.6,28.08,28.08,0,0,1,4.25-2.3,21.38,21.38,0,0,1,4.57-1.47,76.73,76.73,0,0,1,9.52-.74c1.56-.11,3.17-.13,4.62-.32a17.55,17.55,0,0,0,4.26-1.28c1.38-.58,2.7-1.29,4-1.95s2.65-1.32,3.94-2,2.52-1.47,3.7-2.27,2.33-1.65,3.68-2.54a30.86,30.86,0,0,1,8.9-4,28.23,28.23,0,0,1,9.53-.93l.09.5c-2.85,1.39-5.59,2.64-8.17,4.09a70,70,0,0,0-7.34,4.7,41,41,0,0,1-3.95,2.6,39.26,39.26,0,0,1-4.42,2.08,33.58,33.58,0,0,1-4.57,1.53,37.89,37.89,0,0,1-4.74.83c-1.6.17-3.2.28-4.81.31a25.29,25.29,0,0,0-4.57.24c-3,.51-5.77,2-8.48,3.12-1.36.59-2.73,1.12-4.11,1.61s-2.73,1-4.1,1.62c-2.74,1.12-5.46,2.37-8.43,3.55Z"></path><polygon fill="#b2c2e3" points="279.27 874.29 198.26 874.29 189.57 837.77 215.63 773.76 261.9 773.76 287.96 837.77 279.27 874.29"></polygon><polygon fill="url(#b)" points="261.9 773.76 238.76 773.76 238.76 874.29 279.27 874.29 287.96 837.77 261.9 773.76" opacity=".47"></polygon><polygon fill="url(#i)" points="279.54 874.29 198.04 874.29 238.76 835.52 279.54 874.29"></polygon><g><rect width="122.16" height="117.84" x="786.01" y="351.73" fill="url(#f)" opacity=".47" rx="3"></rect><rect width="128.16" height="123.84" x="783.01" y="348.73" fill="none" stroke="url(#a)" stroke-miterlimit="10" stroke-width="7" opacity=".47" rx="6"></rect><rect width="36.48" height="24.96" x="798.61" y="434.32" fill="url(#j)"></rect><line x1="798.61" x2="835.09" y1="415.69" y2="415.69" fill="none" stroke="url(#k)" stroke-miterlimit="10" stroke-width="4"></line><line x1="855.25" x2="901.73" y1="415.69" y2="415.69" fill="none" stroke="url(#l)" stroke-miterlimit="10" stroke-width="4"></line><line x1="798.61" x2="835.09" y1="423.37" y2="423.37" fill="none" stroke="url(#m)" stroke-miterlimit="10" stroke-width="4"></line><line x1="860.25" x2="896.73" y1="456.97" y2="456.97" fill="none" stroke="url(#n)" stroke-miterlimit="10" stroke-width="4"></line><circle cx="808.81" cy="373.53" r="17.98" fill="#4059a6"></circle><path fill="#e6f1fa" d="M811.93,373.07a5.6,5.6,0,0,0,1.84-4.2,5.2,5.2,0,1,0-10.39,0,5.59,5.59,0,0,0,2,4.32,9.23,9.23,0,0,0-5.78,8.56v1.94H818v-1.94A9.24,9.24,0,0,0,811.93,373.07Z"></path><rect width="118.8" height="90.72" x="967.33" y="343.69" fill="none" stroke="url(#o)" stroke-miterlimit="10" stroke-width="7" opacity=".47" rx="6"></rect><line x1="1017.51" x2="1071.51" y1="367.23" y2="367.23" fill="none" stroke="url(#p)" stroke-miterlimit="10" stroke-width="7" opacity=".47"></line><line x1="1008.69" x2="1062.69" y1="396.57" y2="396.57" fill="none" stroke="url(#q)" stroke-miterlimit="10" stroke-width="7" opacity=".47"></line><line x1="1004.01" x2="1058.01" y1="381.9" y2="381.9" fill="none" stroke="url(#r)" stroke-miterlimit="10" stroke-width="7" opacity=".47"></line><line x1="987.51" x2="1071.51" y1="414.21" y2="414.21" fill="none" stroke="url(#s)" stroke-miterlimit="10" stroke-width="7" opacity=".47"></line><rect width="193.92" height="140.64" x="839.89" y="260.17" fill="#e7ebf6" rx="6"></rect><rect width="193.92" height="140.64" x="839.89" y="260.17" fill="url(#t)" opacity=".47" rx="6"></rect><path fill="#a8b9df" d="M845.89,400.8a6,6,0,0,1-6-6V268.57h-1.07a6,6,0,0,0-6,6V403.21a6,6,0,0,0,6,6h181.92a6,6,0,0,0,6-6V400.8Z" opacity=".61"></path><path fill="#e7ebf6" d="M858.89,330.93l26.86-26.86a1,1,0,0,1,1.41,0l16.11,16.11a1,1,0,0,0,1.41,0l7.23-7.23a1,1,0,0,1,1.41,0l17.76,17.76a1,1,0,0,1-.71,1.7l-70.77.23A1,1,0,0,1,858.89,330.93Z"></path><circle cx="906.25" cy="294.73" r="6.6" fill="#4059a6"></circle><g opacity=".47"><line x1="858.17" x2="929.45" y1="353.69" y2="353.69" fill="none" stroke="url(#u)" stroke-miterlimit="10" stroke-width="4"></line><line x1="858.17" x2="897.29" y1="361.13" y2="361.13" fill="none" stroke="url(#v)" stroke-miterlimit="10" stroke-width="4"></line><line x1="858.17" x2="913.85" y1="368.57" y2="368.57" fill="none" stroke="url(#w)" stroke-miterlimit="10" stroke-width="4"></line><line x1="858.17" x2="877.73" y1="376.01" y2="376.01" fill="none" stroke="url(#x)" stroke-miterlimit="10" stroke-width="4"></line></g><rect width="193.92" height="140.64" x="839.89" y="260.17" fill="none" stroke="#4059a6" stroke-miterlimit="10" stroke-width="4" rx="6"></rect><rect width="62.81" height="113.29" x="949.6" y="273.84" fill="#e7ebf6"></rect><rect width="30.23" height="15.15" x="958.67" y="283.85" fill="#a8b9df" rx="1"></rect><rect width="62.81" height="113.29" x="949.6" y="273.84" fill="none" stroke="#a8b9df" stroke-miterlimit="10" stroke-width="4" rx="2"></rect><rect width="8.17" height="27.97" x="961.33" y="344.44" fill="#a8b9df"></rect><rect width="8.17" height="32.96" x="972.06" y="339.65" fill="#a8b9df"></rect><rect width="8.17" height="22.41" x="982.39" y="350.2" fill="#a8b9df"></rect><rect width="8.17" height="28.17" x="992.51" y="344.44" fill="#a8b9df"></rect><line x1="958.67" x2="1000.68" y1="313.75" y2="313.75" fill="none" stroke="#a8b9df" stroke-miterlimit="10" stroke-width="4"></line><line x1="958.67" x2="1000.68" y1="322.46" y2="322.46" fill="none" stroke="#a8b9df" stroke-miterlimit="10" stroke-width="4"></line></g><g data-name="Tabs"><polygon fill="none" stroke="url(#y)" stroke-miterlimit="10" stroke-width="7" points="1025.79 568.36 974.91 568.36 974.91 495.88 990.32 495.88 990.32 553.72 1025.79 553.72 1025.79 568.36" opacity=".47"></polygon><rect width="43.88" height="65.48" x="993.82" y="484.74" fill="url(#z)" opacity=".47"></rect><rect width="41.28" height="6.72" x="1051.03" y="508.12" fill="url(#c)" opacity=".68"></rect><rect width="26.03" height="6.72" x="1051.03" y="519.4" fill="url(#A)" opacity=".68"></rect><rect width="41.28" height="6.72" x="1051.03" y="530.68" fill="url(#B)" opacity=".68"></rect><path fill="#5884c3" d="M1036.27,519c0,12.66-9.18,20-20.51,20s-20.51-7.31-20.51-20,9.18-22.91,20.51-22.91S1036.27,506.3,1036.27,519Z"></path><path fill="#fff" d="M1019.17,517.6a6.12,6.12,0,0,0,2-4.58,5.68,5.68,0,1,0-11.35,0,6.14,6.14,0,0,0,2.16,4.71,10.09,10.09,0,0,0-6.31,9.34v2.12h20.16v-2.12A10.08,10.08,0,0,0,1019.17,517.6Z"></path><path fill="url(#C)" d="M1044.7,557.22H986.82V477.74h57.88Zm-50.88-7h43.88V484.74H993.82Z" opacity=".47"></path></g><g data-name="Tabs"><rect width="220.8" height="107.76" x="707.64" y="527.8" fill="url(#d)" opacity=".47" rx="4"></rect><rect width="116.64" height="44.64" x="725.52" y="581.68" fill="none" stroke="url(#D)" stroke-miterlimit="10" stroke-width="7" opacity=".47" rx="6"></rect><circle cx="745.2" cy="554.09" r="17.25" fill="#3e5fab"></circle><line x1="782.4" x2="903.36" y1="539.94" y2="539.94" fill="none" stroke="url(#E)" stroke-miterlimit="10" stroke-width="6"></line><line x1="782.4" x2="903.36" y1="555.78" y2="555.78" fill="none" stroke="url(#F)" stroke-miterlimit="10" stroke-width="6"></line><line x1="782.4" x2="823.36" y1="571.62" y2="571.62" fill="none" stroke="url(#G)" stroke-miterlimit="10" stroke-width="6"></line><line x1="777.12" x2="806.79" y1="601.12" y2="601.12" fill="none" stroke="url(#H)" stroke-miterlimit="10" stroke-width="3"></line><line x1="777.12" x2="821.28" y1="593.54" y2="593.54" fill="none" stroke="url(#I)" stroke-miterlimit="10" stroke-width="3"></line><line x1="777.12" x2="821.28" y1="608.7" y2="608.7" fill="none" stroke="url(#J)" stroke-miterlimit="10" stroke-width="3"></line><line x1="777.12" x2="791.28" y1="616.28" y2="616.28" fill="none" stroke="url(#K)" stroke-miterlimit="10" stroke-width="3"></line><line x1="795.84" x2="810" y1="616.28" y2="616.28" fill="none" stroke="url(#L)" stroke-miterlimit="10" stroke-width="3"></line><path fill="#3e5fab" d="M911.69,588.64a2.48,2.48,0,0,1,2.47,2.47V621.5a2.47,2.47,0,0,1-2.47,2.46H862.83a2.46,2.46,0,0,1-2.46-2.46V591.11a2.47,2.47,0,0,1,2.46-2.47Zm0,0"></path><path fill="#e7ebf6" d="M860.74,589.62l26.51,18.65,26.52-18.65.15.32-26.67,21.28-26.66-21.29Zm-.15.31"></path><circle cx="749.69" cy="604" r="12.76" fill="#4059a6"></circle><path fill="#e6f1fa" d="M751.91,603.68a4,4,0,0,0,1.3-3,3.69,3.69,0,1,0-7.37,0,4,4,0,0,0,1.4,3.07,6.55,6.55,0,0,0-4.1,6.07v1.38h13.1v-1.38A6.55,6.55,0,0,0,751.91,603.68Z"></path><rect width="226.8" height="113.76" x="704.64" y="524.8" fill="none" stroke="url(#M)" stroke-miterlimit="10" stroke-width="7" opacity=".47" rx="6"></rect></g><g><path fill="#fff" d="M657.07,404.66v51.6a3,3,0,0,0,3,3H687a3,3,0,0,1,2,.77l8.89,8a3,3,0,0,0,4,0l8.78-8a3,3,0,0,1,2-.78h27a3,3,0,0,0,3-3v-51.6a3,3,0,0,0-3-3H660.07A3,3,0,0,0,657.07,404.66Z" opacity=".47"></path><path fill="url(#N)" d="M657.07,404.66v51.6a3,3,0,0,0,3,3H687a3,3,0,0,1,2,.77l8.89,8a3,3,0,0,0,4,0l8.78-8a3,3,0,0,1,2-.78h27a3,3,0,0,0,3-3v-51.6a3,3,0,0,0-3-3H660.07A3,3,0,0,0,657.07,404.66Z" opacity=".47"></path><circle cx="677.11" cy="430.74" r="6.36" fill="#4059a6"></circle><circle cx="699.91" cy="430.74" r="6.36" fill="#4059a6"></circle><circle cx="722.71" cy="430.74" r="6.36" fill="#4059a6"></circle></g><g data-name="Buttons"><path fill="#3e5fab" d="M690.31,326.22v30.51a3,3,0,0,0,3,3h15.55a3,3,0,0,1,2,.76l5.46,4.9a1.7,1.7,0,0,0,2.28,0L724,360.5a3,3,0,0,1,2-.77h15.61a3,3,0,0,0,3-3V326.22a3,3,0,0,0-3-3h-48.3A3,3,0,0,0,690.31,326.22Z"></path></g><g data-name="Tabs"><path fill="url(#O)" d="M577,459.44H366.8V326.6h45.88v70.57A9.33,9.33,0,0,0,422,406.5l155-.34Z" opacity=".47"></path><polyline fill="none" stroke="url(#P)" stroke-miterlimit="10" stroke-width="7" points="580.28 406.26 580.28 462.52 363.16 462.52 363.16 323.16 412.57 323.16" opacity=".47"></polyline><rect width="91.23" height="15.15" x="376.29" y="413.92" fill="url(#Q)" opacity=".47"></rect><rect width="48.28" height="15.15" x="376.29" y="437.02" fill="url(#R)" opacity=".47"></rect><rect width="211.12" height="133.36" x="418.8" y="266.44" fill="url(#S)" opacity=".47" rx="4"></rect><circle cx="451.44" cy="366.92" r="20.7" fill="#e7ebf6"></circle><circle cx="451.44" cy="366.92" r="20.7" fill="none" stroke="url(#T)" stroke-miterlimit="10" stroke-width="5" opacity=".47"></circle><circle cx="451.44" cy="366.92" r="12.34" fill="none" stroke="url(#U)" stroke-miterlimit="10" stroke-width="5" opacity=".47"></circle><polyline fill="none" stroke="url(#V)" stroke-miterlimit="10" stroke-width="4" points="482.41 366.92 496.05 366.92 504.76 354.58 542.88 354.58" opacity=".47"></polyline><rect width="79.03" height="15.15" x="427.24" y="276.38" fill="url(#e)" opacity=".47"></rect><rect width="48.28" height="15.15" x="427.24" y="297.27" fill="url(#W)" opacity=".47"></rect><rect width="30.23" height="15.15" x="512.65" y="331.07" fill="url(#X)" opacity=".47"></rect><rect width="62.81" height="113.29" x="552.81" y="276.38" fill="url(#Y)" opacity=".47"></rect><rect width="30.23" height="15.15" x="561.88" y="286.39" fill="#a8b9df"></rect><rect width="62.81" height="113.29" x="552.81" y="276.38" fill="none" stroke="#a8b9df" stroke-miterlimit="10" stroke-width="4"></rect><rect width="8.17" height="27.97" x="564.54" y="346.97" fill="#a8b9df"></rect><rect width="8.17" height="32.96" x="575.26" y="342.19" fill="#a8b9df"></rect><rect width="8.17" height="22.41" x="585.6" y="352.74" fill="#a8b9df"></rect><rect width="8.17" height="28.17" x="595.72" y="346.98" fill="#a8b9df"></rect><line x1="561.88" x2="603.89" y1="316.29" y2="316.29" fill="none" stroke="#a8b9df" stroke-miterlimit="10" stroke-width="4"></line><line x1="561.88" x2="603.89" y1="325" y2="325" fill="none" stroke="#a8b9df" stroke-miterlimit="10" stroke-width="4"></line><rect width="217.12" height="139.36" x="415.8" y="263.44" fill="none" stroke="url(#Z)" stroke-miterlimit="10" stroke-width="7" opacity=".47" rx="5.93"></rect><circle cx="451.44" cy="366.92" r="57.95" fill="url(#g)" opacity=".6"></circle><circle cx="451.44" cy="366.92" r="37.71" fill="url(#aa)" opacity=".6"></circle><circle cx="451.44" cy="366.92" r="21.83" fill="url(#ab)" opacity=".6"></circle><circle cx="451.44" cy="366.92" r="11.67" fill="#fff"></circle></g><g data-name="Tabs"><path fill="url(#ac)" d="M651.57,624.37l-259.76-1a5,5,0,0,1-5-5V504.35a5,5,0,0,1,5-5H651.59a5,5,0,0,1,5,5v115A5,5,0,0,1,651.57,624.37Z" opacity=".47"></path><circle cx="430.15" cy="539.31" r="27.84" fill="url(#ad)"></circle><line x1="488.23" x2="609.19" y1="519.35" y2="519.35" fill="none" stroke="url(#ae)" stroke-miterlimit="10" stroke-width="7" opacity=".47"></line><line x1="488.23" x2="609.19" y1="535.19" y2="535.19" fill="none" stroke="url(#af)" stroke-miterlimit="10" stroke-width="7" opacity=".47"></line><line x1="488.23" x2="529.19" y1="551.03" y2="551.03" fill="none" stroke="url(#ag)" stroke-miterlimit="10" stroke-width="7" opacity=".47"></line><line x1="402.31" x2="456.27" y1="583.43" y2="583.43" fill="none" stroke="url(#ah)" stroke-miterlimit="10" stroke-width="5"></line><line x1="402.31" x2="426.27" y1="593.79" y2="593.79" fill="none" stroke="url(#ai)" stroke-miterlimit="10" stroke-width="5"></line><line x1="402.31" x2="446.27" y1="604.15" y2="604.15" fill="none" stroke="url(#aj)" stroke-miterlimit="10" stroke-width="5"></line><rect width="143.28" height="40.01" x="488.23" y="571.87" fill="#a8b9df" rx="6"></rect><line x1="541.51" x2="582.47" y1="591.31" y2="591.31" fill="none" stroke="url(#ak)" stroke-miterlimit="10" stroke-width="3"></line><line x1="541.51" x2="602.47" y1="583.73" y2="583.73" fill="none" stroke="url(#al)" stroke-miterlimit="10" stroke-width="3"></line><line x1="541.51" x2="602.47" y1="598.89" y2="598.89" fill="none" stroke="url(#am)" stroke-miterlimit="10" stroke-width="3"></line><path fill="#c2d9e7" d="M531.34,579.12a1.7,1.7,0,0,1,1.7,1.7v21a1.7,1.7,0,0,1-1.7,1.7H497.61a1.7,1.7,0,0,1-1.7-1.7v-21a1.7,1.7,0,0,1,1.7-1.7Zm0,0"></path><path fill="#5580c1" d="M496.16,579.79l18.3,12.88,18.31-12.88.11.22L514.46,594.7,496.06,580Zm-.1.22"></path><path fill="#f79d1d" d="M437.2 553.41a7.05 7.05 0 11-7.05-7 7 7 0 017.05 7zm0 0M430.15 525.21a1.76 1.76 0 01-1.76-1.76v-3.53a1.76 1.76 0 013.52 0v3.53a1.76 1.76 0 01-1.76 1.76zm0 0"></path><path fill="#f9bd16" d="M446.68,548a11.8,11.8,0,0,1-4.19-9V534a12.34,12.34,0,0,0-24.68,0v4.92a11.8,11.8,0,0,1-4.2,9,3.09,3.09,0,0,0,2,5.43h29.08a3.09,3.09,0,0,0,2-5.45Zm0,0"></path><rect width="275.76" height="131.04" x="383.83" y="496.35" fill="none" stroke="url(#an)" stroke-miterlimit="10" stroke-width="7" opacity=".47" rx="6"></rect></g><g data-name="Robot\Head\Back"><rect width="20.14" height="25.88" x="413.3" y="379.99" fill="#474748"></rect><path fill="#ee465e" d="M449.1,392.58H397.63a2.42,2.42,0,0,1-2.4-2.77l11.39-77.1a2.43,2.43,0,0,1,2.4-2.07h28.69a2.43,2.43,0,0,1,2.4,2.07l11.39,77.1A2.42,2.42,0,0,1,449.1,392.58Z"></path><path fill="#d13f5b" d="M449.1,392.58a2.42,2.42,0,0,0,2.4-2.77l-2.38-16.09c-13.75-4.91-24.47-19.32-29.74-30.71-2.68-5.79-6.56-20.55-9.58-32.37H409a2.43,2.43,0,0,0-2.4,2.07l-11.39,77.1a2.42,2.42,0,0,0,2.4,2.77Z"></path><path fill="#4e4f50" d="M449.82,378.47a25.4,25.4,0,0,1-9.88-4.62,29.24,29.24,0,0,0-34.5-1l-2.36,1.61a25.45,25.45,0,0,1-6,3.06l-.35,2.41a27.43,27.43,0,0,0,7.62-3.67l2.36-1.62a27.08,27.08,0,0,1,31.94.9,27.56,27.56,0,0,0,11.55,5.19Z"></path></g><g data-name="Robot\Body\Back"><path fill="url(#ao)" d="M283.47,667.78l81-21.4a5.08,5.08,0,0,1,6.2,3.59l14.08,52.77a5.06,5.06,0,0,1-3.58,6.2l-90.86,20.44a5.1,5.1,0,0,1-.68.13,4.92,4.92,0,0,1-5.24-5.69L279.88,674A5.07,5.07,0,0,1,283.47,667.78Z" opacity=".51"></path><path fill="#c4cee5" d="M291.17,665.12l83.57-22.31a5.05,5.05,0,0,1,6.19,3.59l15.57,58.32a5.06,5.06,0,0,1-3.58,6.2l-27.8,7.42a5.09,5.09,0,0,1-4.56-1l-11.76-9.87a5.09,5.09,0,0,0-4.56-1L305,716.92a5.06,5.06,0,0,1-6.19-3.59l-11.22-42A5.06,5.06,0,0,1,291.17,665.12Z"></path><line x1="371.12" x2="383.69" y1="655.64" y2="699.67" fill="none" stroke="url(#h)" stroke-miterlimit="10" stroke-width="5" opacity=".47"></line><line x1="359.98" x2="372.55" y1="659.08" y2="703.11" fill="none" stroke="url(#ap)" stroke-miterlimit="10" stroke-width="5" opacity=".47"></line><line x1="348.42" x2="360.99" y1="662.52" y2="706.55" fill="none" stroke="url(#aq)" stroke-miterlimit="10" stroke-width="5" opacity=".47"></line><circle cx="309.93" cy="522.54" r="9.91" fill="#30302f"></circle><circle cx="305.05" cy="548.53" r="14.78" fill="#30302f"></circle><circle cx="309.89" cy="574.53" r="9.91" fill="#30302f"></circle><rect width="42.8" height="16.66" x="401.96" y="507.09" fill="#4e4f50"></rect><path fill="#f6be1d" d="M473.11,512.26l-7.56.93a347.17,347.17,0,0,1-84.37,0l-7.56-.93a4.33,4.33,0,0,1-3.77-3.72l-.86-6.33a347.08,347.08,0,0,1-1.87-76.64l.69-7.95a4.35,4.35,0,0,1,4-3.95l24.43-1.92a348.79,348.79,0,0,1,54.28,0l24.44,1.92a4.35,4.35,0,0,1,4,3.95l.68,7.95a346.47,346.47,0,0,1-1.86,76.64l-.86,6.33A4.33,4.33,0,0,1,473.11,512.26Z"></path><path fill="#ee9e23" d="M476.88,508.54l.86-6.33q1.49-10.95,2.27-21.95c-14,13.89-19.49,15.2-47.19,13.9-17.75-.84-31.86-18.8-38.16-32.42-4.54-9.81-12.53-45.35-14-48.77l-8.92.7a4.35,4.35,0,0,0-4,3.95l-.69,7.95A347.08,347.08,0,0,0,369,502.21l.86,6.33a4.33,4.33,0,0,0,3.77,3.72l7.56.93a347.17,347.17,0,0,0,84.37,0l7.56-.93A4.33,4.33,0,0,0,476.88,508.54Z"></path><circle cx="517.81" cy="466.32" r="9.91" fill="#30302f"></circle><circle cx="542.51" cy="475.4" r="14.78" fill="#30302f"></circle><circle cx="552.62" cy="453.32" r="9.91" fill="#30302f"></circle><polyline fill="none" stroke="#f6be1d" stroke-linejoin="round" stroke-width="16" points="437.2 422.6 548.65 486.19 565.69 379.8"></polyline><circle cx="545.27" cy="481.11" r="14.78" fill="#4e4f50"></circle><circle cx="545.27" cy="481.11" r="8.45" fill="#30302f"></circle><circle cx="516.9" cy="472.65" r="9.91" fill="#4e4f50"></circle><circle cx="516.9" cy="472.65" r="5.01" fill="#30302f"></circle><circle cx="556.72" cy="454.77" r="9.91" fill="#4e4f50"></circle><circle cx="556.72" cy="454.77" r="5.01" fill="#30302f"></circle><path fill="#ee9e23" d="M598,382.38l-6.4-5.85a15.64,15.64,0,1,1-23.08-21.11l-6.39-5.84A24.3,24.3,0,0,0,598,382.38Z"></path><circle cx="565.69" cy="382.28" r="9.91" fill="#4e4f50"></circle><circle cx="565.69" cy="382.28" r="5.01" fill="#ee9e23"></circle><path fill="none" stroke="#f8e782" stroke-miterlimit="10" d="M387 453.33a5.2 5.2 0 005.2-5.21V412.07l-20.36 1.6a4.35 4.35 0 00-4 3.95l-.69 7.95q-1.2 13.86-1.27 27.76zM475.06 496a5.2 5.2 0 005.2-5.21V454.77l-20.35 1.6a4.33 4.33 0 00-4 3.95l-.69 7.95Q454 482.13 454 496z"></path><path fill="#ee9e23" d="M451.2 411.81v26.81a4.33 4.33 0 004.33 4.33h12.79a4.33 4.33 0 004.34-4.33V413.49zM449.29 491.7A4.33 4.33 0 00445 496v19.05q10.31-.63 20.59-1.89l7.56-.93a4.33 4.33 0 003.77-3.72l.86-6.33c.48-3.5.89-7 1.25-10.51z"></path><path fill="#e77b26" d="M464.94 491.7c-5.09 2.19-10.92 2.89-19.71 2.84A4.37 4.37 0 00445 496v19.05q10.23-.63 20.43-1.87l.16 0 7.56-.93a4.33 4.33 0 003.77-3.72l.86-6.33c.48-3.5.89-7 1.25-10.51zM381.87 474.53H366.36q.76 13.88 2.63 27.68l.86 6.33a4.32 4.32 0 003.77 3.72l7.56.93c2.39.29 4.8.53 7.2.77V481A6.51 6.51 0 00381.87 474.53z"></path><path fill="#4e4f50" d="M446.43,411.47a14.3,14.3,0,0,0-14-11.21H416.08a14.3,14.3,0,0,0-13.93,11.09A346.16,346.16,0,0,1,446.43,411.47Z"></path><path fill="#ee9e23" d="M365.83 468.28l-9.11-12.1c-13-25-5.37-29.55 7.95-36.84l3.14-1.72zM480.59 468.28l9.11-12.1c13-25 5.37-29.55-7.95-36.84l-3.14-1.72z"></path><path fill="#e77b26" d="M423.36,517.93a348.37,348.37,0,0,1-42.45-2.59l-7.56-.93a6.49,6.49,0,0,1-5.65-5.58l-.86-6.33A349.59,349.59,0,0,1,365,425.38l.69-7.95a6.49,6.49,0,0,1,6-5.92l24.43-1.92a350.69,350.69,0,0,1,54.62,0l24.43,1.92a6.47,6.47,0,0,1,6,5.92l.69,7.95a349,349,0,0,1-1.87,77.12l-.86,6.34a6.49,6.49,0,0,1-5.65,5.57l-7.57.93A348.12,348.12,0,0,1,423.36,517.93Zm0-105.07c-9,0-18,.35-27,1.06L372,415.83a2.17,2.17,0,0,0-2,2l-.69,7.95a345.7,345.7,0,0,0,1.85,76.15l.87,6.34a2.15,2.15,0,0,0,1.88,1.86l7.56.93a344.92,344.92,0,0,0,83.85,0l7.56-.93a2.15,2.15,0,0,0,1.88-1.86l.86-6.34a345.09,345.09,0,0,0,1.86-76.15l-.69-7.95a2.18,2.18,0,0,0-2-2l-24.44-1.91C441.39,413.21,432.38,412.86,423.36,412.86Z"></path><path fill="#f6be1d" d="M354.71,452.11a54.61,54.61,0,0,1-4.13-11.29h0c-.93.78-24.55,21.49-38.83,56.46C298.6,529.44,289.89,581.89,323,649l9.72-4.8c-25.08-50.78-28.84-98.67-11.18-142.36C333,473.69,350.05,456.46,354.71,452.11Z"></path><circle cx="299" cy="548.53" r="14.78" fill="#4e4f50"></circle><circle cx="299" cy="548.53" r="8.45" fill="#30302f"></circle><circle cx="305.05" cy="522.54" r="9.91" fill="#4e4f50"></circle><circle cx="305.05" cy="522.54" r="5.01" fill="#30302f"></circle><circle cx="305.02" cy="574.53" r="9.91" fill="#4e4f50"></circle><circle cx="305.02" cy="574.53" r="5.01" fill="#30302f"></circle><path fill="#ee9e23" d="M314.81,678.15a24.3,24.3,0,1,1,43.8-21.07l-7.81,3.76a15.64,15.64,0,0,0-28.18,13.56Z"></path><circle cx="328.29" cy="647.64" r="9.91" fill="#4e4f50"></circle><circle cx="328.29" cy="647.64" r="5.01" fill="#ee9e23"></circle><circle cx="383.79" cy="479.34" r="1.87" fill="#020202"></circle><circle cx="455.83" cy="437.58" r="1.87" fill="#020202"></circle><circle cx="468.98" cy="437.58" r="1.87" fill="#020202"></circle><circle cx="468.98" cy="419.49" r="1.87" fill="#020202"></circle><circle cx="455.83" cy="417.62" r="1.87" fill="#020202"></circle><circle cx="449.33" cy="496.12" r="1.87" fill="#020202"></circle><circle cx="472.66" cy="496.03" r="1.87" fill="#020202"></circle><circle cx="372.18" cy="479.34" r="1.87" fill="#020202"></circle><circle cx="384.67" cy="507.97" r="1.87" fill="#020202"></circle><circle cx="449.33" cy="508.96" r="1.87" fill="#020202"></circle><polygon fill="#c4cee5" points="310.67 659.91 337.87 652.65 327.68 670.39 324.27 675.38 318.38 678.74 311.78 678.15 310.67 659.91"></polygon></g><g data-name="Robot\Leg\Front"><circle cx="462.98" cy="843.69" r="8.97" fill="#30302f"></circle><path fill="#30302f" d="M464.55,863h5.65v-3h-5.65c-1,0-1.57-.5-1.58-.68l-2.61-38.44s0-.11.1-.18a2.09,2.09,0,0,1,1.48-.5h9.46v-3h-9.46a5,5,0,0,0-3.67,1.45,3.26,3.26,0,0,0-.91,2.44L460,859.5C460.11,861.48,462.07,863,464.55,863Z"></path><polygon fill="#ee465e" points="466.51 842.66 496.92 841.89 474.55 719.29 471.41 583.45 421.69 552.07 463.63 718.04 466.51 842.66"></polygon><path fill="#4e4f50" d="M451.65,564.63h3.48a22.8,22.8,0,0,1,22.8,22.8v3.48a3,3,0,0,1-3,3H451.65a3,3,0,0,1-3-3V567.63A3,3,0,0,1,451.65,564.63Z" transform="rotate(-180 463.29 579.275)"></path><path fill="#79797a" d="M473.48,577h1.18a3.27,3.27,0,0,0,3.27-3.27v7.84a3.27,3.27,0,0,1-3.27,3.27h-1.18a24.83,24.83,0,0,1-24.83-24.83v-1.18a3.2,3.2,0,0,1,.5-1.71A24.83,24.83,0,0,0,473.48,577Z"></path><path fill="#c23e56" d="M466.52,841.89v32.4H538v-11a7.64,7.64,0,0,0-7.46-7.62c-10.43-.28-28.66-2.44-33.66-13.81h-30.4Z"></path><path fill="#4e4f50" d="M456.44,618.4c.64,16.25,1.87,32.42,3.3,48.57.67,8.09,1.54,16.15,2.32,24.22l2.64,24.17q2.79,24.15,6.28,48.23c2.31,16,4.83,32.07,7.95,48-.64-16.25-1.86-32.42-3.3-48.58s-3.08-32.28-5-48.38l-3-24.13c-1.09-8-2.09-16.08-3.3-24.09C462.06,650.38,459.54,634.36,456.44,618.4Z"></path><path fill="#30302f" d="M466.7,874.29a8.9,8.9,0,0,1,2.91-6,8.46,8.46,0,0,1,6-2.17,8.11,8.11,0,0,1,5.61,2.57,8,8,0,0,1,2.14,5.62h2.33a7.88,7.88,0,0,1,2.37-5.38,7.61,7.61,0,0,1,10.65.11,7.44,7.44,0,0,1,2.15,5.27h3A7.4,7.4,0,0,1,506,869a7.59,7.59,0,0,1,10.64-.11,7.88,7.88,0,0,1,2.37,5.38h2.34a7.91,7.91,0,0,1,2.14-5.61,8.07,8.07,0,0,1,5.61-2.57,8.37,8.37,0,0,1,6,2.17,8.94,8.94,0,0,1,2.91,6,9,9,0,0,0-2.32-6.6,9.44,9.44,0,0,0-6.6-3.06,9.77,9.77,0,0,0-7,2.66,9.91,9.91,0,0,0-3.09,7h2.34a10,10,0,0,0-2.85-7.24,10.25,10.25,0,0,0-14.58-.11,10.48,10.48,0,0,0-3.07,7.35h3a10.29,10.29,0,0,0-17.65-7.24,10,10,0,0,0-2.85,7.24h2.33a9.89,9.89,0,0,0-3.09-7,9.74,9.74,0,0,0-7-2.65,9.37,9.37,0,0,0-6.6,3.05A8.93,8.93,0,0,0,466.7,874.29Z"></path><circle cx="304.03" cy="816.13" r="8.97" fill="#30302f"></circle><path fill="#30302f" d="M302.9,836.69l1.2-2.75-5.17-2.27c-.92-.4-1.24-1.09-1.18-1.25l13-36.26A.43.43,0,0,1,311,794a2.08,2.08,0,0,1,1.55.13l8.67,3.8,1.2-2.75-8.66-3.8a5,5,0,0,0-4-.13,3.23,3.23,0,0,0-1.8,1.86l-13,36.25c-.67,1.87.53,4,2.79,5Z"></path><polygon fill="#ee465e" points="307.67 816.6 335.83 828.11 364.56 706.84 416.23 581.17 383.28 532.46 355.06 701.32 307.67 816.6"></polygon><path fill="#4e4f50" d="M398.82,559.44h3.48a22.8,22.8,0,0,1,22.8,22.8v3.48a3,3,0,0,1-3,3H398.82a3,3,0,0,1-3-3V562.44A3,3,0,0,1,398.82,559.44Z" transform="rotate(-156.33 410.469 574.083)"></path><path fill="#79797a" d="M420.69,576.13l1.09.47a3.27,3.27,0,0,0,4.3-1.68l-3.15,7.18a3.26,3.26,0,0,1-4.3,1.68l-1.08-.47a24.84,24.84,0,0,1-12.78-32.71l.48-1.08a3.14,3.14,0,0,1,1.14-1.37A24.85,24.85,0,0,0,420.69,576.13Z"></path><path fill="#c23e56" d="M308,815.91l-13,29.67,65.5,28.71,4.4-10a7.64,7.64,0,0,0-3.77-10c-9.44-4.44-25.27-13.74-25.29-26.16h0Z"></path><path fill="#4e4f50" d="M388.48,607.17C382.54,622.3,377.17,637.61,372,653c-2.64,7.67-5.07,15.4-7.6,23.11l-7.28,23.2Q350,722.53,343.51,746c-4.32,15.63-8.45,31.32-12,47.18,5.94-15.13,11.31-30.44,16.48-45.81s10.14-30.8,14.87-46.31l7-23.29c2.22-7.8,4.54-15.57,6.65-23.4C380.79,638.72,384.92,623,388.48,607.17Z"></path><path fill="#30302f" d="M295.15,845.65a8.91,8.91,0,0,1,5.08-4.34,8.45,8.45,0,0,1,6.37.42,8.09,8.09,0,0,1,4.11,4.61,7.93,7.93,0,0,1-.29,6l2.13.94a7.87,7.87,0,0,1,4.34-4,7.54,7.54,0,0,1,9.56,10.07l2.74,1.2a7.46,7.46,0,0,1,4.09-4,7.59,7.59,0,0,1,9.79,4.17,7.91,7.91,0,0,1,0,5.88l2.14.94a7.91,7.91,0,0,1,4.21-4.28,8.13,8.13,0,0,1,6.17-.11,8.43,8.43,0,0,1,4.64,4.4,9,9,0,0,1,.25,6.68,9,9,0,0,0,.52-7,9.38,9.38,0,0,0-4.82-5.44,9.76,9.76,0,0,0-7.47-.39,10,10,0,0,0-5.64,5.18l2.14.94a10,10,0,0,0,.3-7.77,10.31,10.31,0,0,0-19.07-.46l2.74,1.2a10.28,10.28,0,0,0-13.26-13.71,10,10,0,0,0-5.51,5.48l2.13.94a9.94,9.94,0,0,0,0-7.65,9.78,9.78,0,0,0-5.35-5.24,9.41,9.41,0,0,0-7.26.15A9,9,0,0,0,295.15,845.65Z"></path><circle cx="360.58" cy="705.46" r="14.78" fill="#4e4f50"></circle><circle cx="360.58" cy="705.46" r="8.45" fill="#ee465e"></circle><circle cx="467.68" cy="719.62" r="14.78" fill="#4e4f50"></circle><circle cx="467.68" cy="719.62" r="8.45" fill="#ee465e"></circle><path fill="#30302f" d="M379.16,569.62a192.41,192.41,0,0,0,86,.74,58.45,58.45,0,0,1,13.74-41.16,2.17,2.17,0,0,0-1.68-3.56H366.92a2.17,2.17,0,0,0-1.78,3.41,80.75,80.75,0,0,1,11.28,24.12A78.89,78.89,0,0,1,379.16,569.62Z"></path><path fill="#ee465e" d="M379.16,569.62a192.41,192.41,0,0,0,86,.74,58.45,58.45,0,0,1,13.74-41.16,2.17,2.17,0,0,0-1.68-3.56H366.92a2.17,2.17,0,0,0-1.78,3.41,80.75,80.75,0,0,1,11.28,24.12A78.89,78.89,0,0,1,379.16,569.62Z"></path><path fill="#c23e56" d="M376.42,553.17c-.17-.64-.37-1.24-.56-1.86,7.65,4.05,16.27,4.31,34.2,3.46,16.36-.77,29.62-16.08,36.53-29.13h30.33c-.06,2.11-.14,4.23-.24,6.34a58.32,58.32,0,0,0-11.55,38.38,192.41,192.41,0,0,1-86-.74A78.89,78.89,0,0,0,376.42,553.17Z"></path><path fill="#545554" d="M405.27,551.41a29.26,29.26,0,0,1,34.51-1l2.36,1.61a25,25,0,0,0,24.26,2.41c-.19.86-.35,1.7-.5,2.53a27.19,27.19,0,0,1-25-3.14l-2.36-1.62a27.1,27.1,0,0,0-31.95.9,27.3,27.3,0,0,1-29.53,2.53c-.2-.82-.41-1.65-.65-2.49,0-.16-.1-.32-.14-.48a25.18,25.18,0,0,0,29-1.28Z"></path><path fill="#484748" d="M430.27 546.17a29.51 29.51 0 019.51 4.27l2.36 1.61a25 25 0 0024.26 2.41c-.19.86-.35 1.7-.5 2.53h0a27.19 27.19 0 01-25-3.14l-2.36-1.62A27.22 27.22 0 00428 547.91C428.79 547.36 429.54 546.78 430.27 546.17zM389.84 556.67a25.18 25.18 0 008.56-1.52c1.67 0 3.45 0 5.35-.12a27.2 27.2 0 01-26.68.63h0c-.2-.82-.41-1.65-.65-2.49 0-.16-.1-.32-.14-.48A25.29 25.29 0 00389.84 556.67z"></path><path fill="#ea5f7a" d="M444,527.82a176.62,176.62,0,0,0-24.54-3.15c-8.16-.55-16.31-.71-24.46-.6-2,0-4.07.06-6.11.15s-4.07.12-6.11.25-4.07.21-6.1.36l-3.06.22-1.52.14-.51,0a6.13,6.13,0,0,0-1.08.16,6.52,6.52,0,0,0-2.12.91,6.34,6.34,0,0,0-2.59,3.56,6.22,6.22,0,0,0,.33,4.33,6,6,0,0,0,.53.92l.13.19.06.07.12.14.49.57,1,1.12c1.27,1.49,2.46,2.93,3.56,4.49,2.23,3.12,4.15,6.81,6.49,10.38a41.18,41.18,0,0,0-1.43-12.75,36.8,36.8,0,0,0-2.47-6.14l-.73-1.43-.38-.69-.09-.17-.05-.09s0,0,0,0a1.8,1.8,0,0,1,.17.25,1.94,1.94,0,0,1-.56,2.52,2.24,2.24,0,0,1-.71.35,3.22,3.22,0,0,1-.32.07c-.09,0,0,0,.07,0h.19l1.53.06,3.06.06c2,.06,4.08.07,6.12.07s4.08,0,6.12-.06,4.08-.09,6.12-.16c8.16-.3,16.32-.86,24.46-1.82A176.7,176.7,0,0,0,444,527.82Z"></path><path fill="#ee465e" d="M421.74,576.85a194.45,194.45,0,0,1-43-5.29l-1.44-.34-.09-1.48a77.27,77.27,0,0,0-2.68-16,78.32,78.32,0,0,0-11-23.52,4.18,4.18,0,0,1,3.43-6.55H477.19a4.17,4.17,0,0,1,3.21,6.84,56.5,56.5,0,0,0-13.27,39.77l.09,1.7-1.66.37a195.15,195.15,0,0,1-41.79,4.54Zm43.2-24.93a61.08,61.08,0,0,1,12.39-24,.14.14,0,0,0,0-.18.16.16,0,0,0-.16-.1H366.92a.15.15,0,0,0-.15.09.17.17,0,0,0,0,.19A81.78,81.78,0,0,1,381.06,568a190.39,190.39,0,0,0,82,.75A60.69,60.69,0,0,1,464.94,551.92Z"></path></g><g data-name="Robot\Leg\Small"><rect width="16" height="62.98" x="1009.92" y="698.72" fill="#ee9e23" transform="rotate(-36.87 1017.822 730.174)"></rect><circle cx="1035.32" cy="755.2" r="17.49" fill="#e77b26"></circle><circle cx="1035.32" cy="755.2" r="7.67" fill="#4e4f50"></circle><path fill="#787878" d="M985.7,820.51a53.81,53.81,0,0,1,41.62-52.41,53.79,53.79,0,1,0,0,104.81A53.79,53.79,0,0,1,985.7,820.51Z"></path><circle cx="1029.99" cy="820.51" r="53.78" fill="#4e4f50"></circle><circle cx="1029.99" cy="820.51" r="37.13" fill="#6b6b6b"></circle><circle cx="1029.99" cy="820.51" r="17.49" fill="none" stroke="#787878" stroke-miterlimit="10"></circle><path fill="#f6be1d" d="M1035.85,826l60.6-65.31a8,8,0,0,0,.54-10.24L1059.2,700l-12.8,9.6,33.78,45-56,60.41Z"></path><path fill="#4e4f50" d="M961.73,666.33h131.21a0,0,0,0,1,0,0v8.45a6,6,0,0,1-6,6H967.73a6,6,0,0,1-6-6v-8.45A0,0,0,0,1,961.73,666.33Z"></path><path fill="#787878" d="M984.22,677.23v-10.9H961.73v10.9a3.55,3.55,0,0,0,3.55,3.55h22.49A3.55,3.55,0,0,1,984.22,677.23Z"></path><path fill="#f6be1d" d="M973,680.78h108.57a0,0,0,0,1,0,0v22.14a6,6,0,0,1-6,6H979a6,6,0,0,1-6-6V680.78A0,0,0,0,1,973,680.78Z"></path><path fill="#ee9e23" d="M987.81,705.37V680.78H973.05v24.59a3.55,3.55,0,0,0,3.55,3.55h14.77A3.56,3.56,0,0,1,987.81,705.37Z"></path><circle cx="1088.81" cy="755.2" r="17.49" fill="#ee9e23"></circle><circle cx="1088.81" cy="755.2" r="7.67" fill="#4e4f50"></circle><circle cx="1029.99" cy="820.51" r="17.49" fill="#ee9e23"></circle><circle cx="1029.99" cy="820.51" r="7.67" fill="#4e4f50"></circle></g><g data-name="Robot\Head\Side"><path fill="#838383" d="M1017.83,525.9c0-2.12,1.61-2.11,1.63-4.23s-1.58-2.14-1.56-4.26,1.62-2.11,1.63-4.23-1.58-2.13-1.56-4.25,1.62-2.11,1.64-4.23-1.58-2.14-1.57-4.26l20.64-.11c0,2.12,1.58,2.13,1.56,4.25s-1.62,2.11-1.64,4.23,1.58,2.13,1.57,4.25-1.62,2.11-1.64,4.23,1.58,2.14,1.56,4.26-1.62,2.11-1.63,4.23Z"></path><path fill="#4e4f50" d="M1038.67 500.32h0a24.15 24.15 0 01-2.35 1.58 17.18 17.18 0 01-2.52 1.13c-.87.28-1.76.56-2.67.79s-1.83.52-2.73.73c-1.79.51-3.64.65-5.58 1.33a12.26 12.26 0 00-4.83 3.3 21.58 21.58 0 015.19-2.1c.88-.2 1.78-.31 2.74-.43s1.92-.32 2.87-.55a31.52 31.52 0 005.5-1.93 11.68 11.68 0 002.48-1.63 11.81 11.81 0 001.91-2.22h0zM1018.05 516.6a28.81 28.81 0 015.32-2.62 19.29 19.29 0 012.84-.6c1-.17 2-.38 3-.64a32.33 32.33 0 005.75-2.18 10.86 10.86 0 004.45-4.25 16 16 0 01-5 3.11c-.91.34-1.83.66-2.79.94s-1.91.6-2.85.84-1.9.48-2.88.7a14.58 14.58 0 00-3 .92 11.9 11.9 0 00-2.66 1.66A17.71 17.71 0 001018.05 516.6zM1040.15 513.2a15.9 15.9 0 01-5 2.85c-.91.31-1.82.61-2.77.87s-1.86.57-2.8.8-1.86.45-2.83.66a13.51 13.51 0 00-2.94 1 13.07 13.07 0 00-4.7 3.78h0a23.13 23.13 0 015.17-2.63 16.2 16.2 0 012.75-.63c1-.16 2-.36 3-.6a33.91 33.91 0 005.65-2.08A10.68 10.68 0 001040.15 513.2z"></path><path fill="#657ebd" d="M993.31,510.65c5-2.91,19.29-10.42,37.6-7.71a55.27,55.27,0,0,1,19.61,6.92,148.16,148.16,0,0,0,6-61c-14.58-4.18-30.47-5.35-52.08-5.29Z"></path><path fill="#fcc01d" d="M994,510.84c5-2.91,19.29-10.42,37.59-7.7a55.08,55.08,0,0,1,19.62,6.91,148.16,148.16,0,0,0,6-61c-14.59-4.18-30.47-5.35-52.08-5.29Z"></path><circle cx="1033.15" cy="485.37" r="14.01" fill="#e97b24"></circle><path fill="#e97b24" d="M993.31,510.65l10.94-65.88.77-1.18c3.83,0,7.48,0,11,.11a78.76,78.76,0,0,0,9.52,9.82c-13.48,14.69-16.17,38.54-17.27,50.85A61.78,61.78,0,0,0,993.31,510.65Z"></path><path fill="#f2a01e" d="M1021.21,452.29s-13.39-11.38-13.94-18.56c0,0-36.24,39.32-16.4,86.37,0,0,11.51-3,12.51-11S1005,470,1021.21,452.29Z"></path><circle cx="1002.32" cy="462.17" r="4.69" fill="#30302f"></circle><circle cx="1026.83" cy="483.56" r="14.01" fill="#4e4f50"></circle><circle cx="1026.83" cy="483.56" r="8.34" fill="#30302f"></circle></g><g data-name="Robot\Body\Side"><path fill="#4e4f50" d="M1133,742.9s-3,24-16.9,6.91Z"></path><circle cx="1123.41" cy="718.32" r="8.01" fill="#4e4f50"></circle><path fill="#f6be1d" d="M1110,718.71h13.5a13.5,13.5,0,0,1,13.5,13.5v0a13.5,13.5,0,0,1-13.5,13.5h-5.85a7.65,7.65,0,0,1-7.65-7.65V718.71a0,0,0,0,1,0,0Z" transform="rotate(-112.23 1123.525 732.195)"></path><path fill="#375fab" d="M1109.35,626h0a9.52,9.52,0,0,1,9.52,9.52v82.27a0,0,0,0,1,0,0h-19a0,0,0,0,1,0,0V635.5A9.52,9.52,0,0,1,1109.35,626Z" transform="rotate(161.56 1109.34 671.898)"></path><path fill="#f6be1d" d="M1109.35,626h0a9.52,9.52,0,0,1,9.52,9.52v82.27a0,0,0,0,1,0,0h-19a0,0,0,0,1,0,0V635.5A9.52,9.52,0,0,1,1109.35,626Z" transform="rotate(161.56 1109.34 671.898)"></path><path fill="#f8e782" d="M1119.07,716.16l1.91-.59c-5.55-17.83-18.85-60-22.29-66a13.23,13.23,0,0,0-8.49-6.71l-.46,2a11.28,11.28,0,0,1,7.21,5.75C1100.4,656.61,1114.75,702.3,1119.07,716.16Z"></path><path fill="#f6be1d" d="M1068.63,543.83h0a9.57,9.57,0,0,1,9.57,9.57v82.68a0,0,0,0,1,0,0h-19.14a0,0,0,0,1,0,0V553.4A9.57,9.57,0,0,1,1068.63,543.83Z" transform="rotate(145.25 1068.62 589.988)"></path><circle cx="1097.94" cy="633.17" r="18.91" fill="#4e4f50"></circle><circle cx="1097.96" cy="633.1" r="10.52" fill="#30302f"></circle><path fill="#838383" d="M1012.18,673c0-3.62,2.76-3.6,2.79-7.22s-2.71-3.65-2.68-7.27,2.76-3.6,2.79-7.23-2.7-3.64-2.67-7.25,2.75-3.6,2.78-7.22-2.7-3.64-2.67-7.26l35.22-.23c0,3.62,2.7,3.64,2.67,7.26s-2.76,3.6-2.78,7.22,2.7,3.64,2.67,7.26-2.76,3.6-2.79,7.22,2.71,3.65,2.68,7.27-2.76,3.6-2.79,7.23Z"></path><path fill="#4e4f50" d="M1047.74 629.33v0h0a44.83 44.83 0 01-4 2.7 27.53 27.53 0 01-4.3 1.92c-1.49.49-3 1-4.56 1.37s-3.12.88-4.65 1.24c-3 .87-6.23 1.12-9.54 2.28a21.1 21.1 0 00-8.24 5.63 37.47 37.47 0 018.86-3.59c1.5-.33 3-.53 4.68-.74s3.28-.55 4.9-.93a52.87 52.87 0 009.38-3.31 19.89 19.89 0 004.24-2.78 20.13 20.13 0 003.25-3.79h0zM1012.56 657.15a48 48 0 019.07-4.48 32.88 32.88 0 014.84-1c1.7-.28 3.43-.64 5.14-1.08a53.85 53.85 0 009.81-3.75 18.46 18.46 0 007.6-7.25 27.26 27.26 0 01-8.5 5.32c-1.55.58-3.13 1.13-4.77 1.6s-3.25 1-4.86 1.44-3.24.82-4.92 1.19a25.5 25.5 0 00-5.11 1.59 20.5 20.5 0 00-4.54 2.83A30 30 0 001012.56 657.15zM1050.28 651.32a27.22 27.22 0 01-8.56 4.86c-1.54.53-3.11 1-4.72 1.5s-3.17 1-4.77 1.36-3.19.78-4.85 1.14a21.81 21.81 0 00-13 8.11h0v0h0a39.57 39.57 0 018.83-4.5 27.27 27.27 0 014.7-1.08c1.65-.28 3.35-.61 5-1a58 58 0 009.66-3.56A18.26 18.26 0 001050.28 651.32z"></path><path fill="#f6be1d" d="M1001.15,628.07l54.61,10.22a3.36,3.36,0,0,0,3.88-2.53l19.7-82.21a3.37,3.37,0,0,0-.63-2.87L1058,524.44a3.35,3.35,0,0,0-2.66-1.28c-7.72.07-16.14.48-25.15,1.45a256.56,256.56,0,0,0-29.58,4.92,3.35,3.35,0,0,0-2.38,2.06,129,129,0,0,0,.44,94.42A3.33,3.33,0,0,0,1001.15,628.07Z"></path><path fill="#ee9e23" d="M1069.9,540.38l8.13,10.3a3.37,3.37,0,0,1,.64,2.87L1059,635.76a3.37,3.37,0,0,1-3.89,2.53l-54.6-10.22A3.34,3.34,0,0,1,998,626c-.66-1.66-1.34-3.47-2-5.4C1046.44,604.61,1064.31,560.23,1069.9,540.38Z"></path><path fill="none" stroke="#4e4f50" stroke-miterlimit="10" stroke-width="2" d="M1056.29 523.15s22.76 68.92-13.83 112.77M1049 523.72s.7 2.09 1.63 5.77"></path><path fill="none" stroke="#4e4f50" stroke-dasharray="11.55 11.55" stroke-miterlimit="10" stroke-width="2" d="M1053.08,540.78c3.63,20.38,6,55.31-11.68,84"></path><path fill="none" stroke="#4e4f50" stroke-miterlimit="10" stroke-width="2" d="M1038.2,629.56q-1.73,2.41-3.67,4.75"></path><path fill="#f8e782" d="M998,628.62l-.21-.5a131.29,131.29,0,0,1-7.17-23.19l-.32-1.53,12.66,2.87a16.33,16.33,0,0,1,12.6,17.2l-.69,8.31Zm1.43-1.77L1013,629.4l.51-6.1a14.33,14.33,0,0,0-11-15.08L992.87,606A129.1,129.1,0,0,0,999.39,626.85Z"></path><path fill="#ee9e23" d="M1054.72,640.25,1000.11,630h0a5.35,5.35,0,0,1-4-3.29,131,131,0,0,1-.44-95.87,5.34,5.34,0,0,1,3.8-3.3,259.36,259.36,0,0,1,29.82-5c8.38-.9,16.91-1.39,25.34-1.46a5.44,5.44,0,0,1,4.25,2l20.72,26.24a5.3,5.3,0,0,1,1,4.57l-19.69,82.22a5.37,5.37,0,0,1-5.21,4.11A5.52,5.52,0,0,1,1054.72,640.25Zm0-115.09c-8.3.07-16.7.55-25,1.43a258.13,258.13,0,0,0-29.35,4.89,1.34,1.34,0,0,0-1,.83,127.12,127.12,0,0,0,.43,93,1.37,1.37,0,0,0,1,.83l54.6,10.21a1.38,1.38,0,0,0,1.58-1l19.69-82.22a1.34,1.34,0,0,0-.25-1.16l-20.73-26.24a1.35,1.35,0,0,0-1.06-.52Zm-54.2,102.91h0Z"></path><circle cx="1021.98" cy="559.1" r="18.91" fill="#30302f"></circle><path fill="#4e4f50" d="M829.94,589s-18.63-15.46-17,6.56Z"></path><circle cx="845.18" cy="606.49" r="8.01" fill="#4e4f50"></circle><path fill="#ee9e23" d="M824.49,589.79h5.85a13.5,13.5,0,0,1,13.5,13.5v0a13.5,13.5,0,0,1-13.5,13.5h-13.5a0,0,0,0,1,0,0V597.44A7.65,7.65,0,0,1,824.49,589.79Z" transform="rotate(68.97 830.327 603.252)"></path><path fill="#375fab" d="M892.68,570.55h0a9.52,9.52,0,0,1,9.52,9.52v82.27a0,0,0,0,1,0,0h-19a0,0,0,0,1,0,0V580.08A9.52,9.52,0,0,1,892.68,570.55Z" transform="matrix(.18 -.98 .98 .18 127.28 1385.24)"></path><path fill="#ee9e23" d="M892.68,570.55h0a9.52,9.52,0,0,1,9.52,9.52v82.27a0,0,0,0,1,0,0h-19a0,0,0,0,1,0,0V580.08A9.52,9.52,0,0,1,892.68,570.55Z" transform="matrix(.18 -.98 .98 .18 127.28 1385.24)"></path><path fill="#f8e782" d="M917.17,617.79h.17a13.29,13.29,0,0,0,10-4.22l-1.49-1.34a11.28,11.28,0,0,1-8.51,3.56h-.15c-7.44,0-53.86-9.22-68-12.07l-.39,2C866.93,609.34,909.73,617.79,917.17,617.79Z"></path><path fill="#ee9e23" d="M984.81,544.46h0a9.57,9.57,0,0,1,9.57,9.57v82.68a0,0,0,0,1,0,0H975.24a0,0,0,0,1,0,0V554a9.57,9.57,0,0,1,9.57-9.57Z" transform="rotate(-135 984.816 590.584)"></path><circle cx="947.5" cy="627.13" r="18.91" fill="#4e4f50"></circle><circle cx="947.57" cy="627.13" r="10.52" fill="#30302f"></circle><circle cx="1015.52" cy="559.1" r="19" fill="#4e4f50"></circle><circle cx="1015.52" cy="559.1" r="10.57" fill="#30302f"></circle></g></svg>